<svg xmlns="http://www.w3.org/2000/svg" xmlns:xlink="http://www.w3.org/1999/xlink" viewBox="0 0 1920 581.42"><defs><style>.cls-1,.cls-10,.cls-11{fill:#ebe3df;}.cls-2{isolation:isolate;}.cls-3{fill:#e6efee;opacity:0.52;}.cls-16,.cls-4{fill:#5d5d5d;mix-blend-mode:multiply;}.cls-4{opacity:0.23;}.cls-5{fill:#a14443;}.cls-6{fill:#f3f1f5;}.cls-7{fill:#44549b;}.cls-8{fill:#d6d8e1;}.cls-9{fill:#5d5d5e;}.cls-10{font-size:46.35px;}.cls-10,.cls-11{font-family:BookAntiqua, Book Antiqua;}.cls-11{font-size:12.16px;}.cls-12{fill:#cfcccb;}.cls-13{fill:#c3bbba;}.cls-14{fill:#cdc2bf;}.cls-15{fill:#524643;}.cls-16{opacity:0.15;}.cls-17{fill:#ddd6d3;}.cls-18{fill:#a6a3a3;}.cls-19{clip-path:url(#clip-path);}</style><clipPath id="clip-path"><path class="cls-1" d="M952.5,171.41a181.92,181.92,0,0,0-35.8.2C895,183,895.35,205.72,895.35,207.14h78.5C973.85,205.72,974.25,182.81,952.5,171.41Z"/></clipPath></defs><g class="cls-2"><g id="OBJECTS"><path class="cls-3" d="M856.21,159.43a5.89,5.89,0,0,0-5.91-5.86,6.14,6.14,0,0,0-1.92.32,10.82,10.82,0,0,0-19.19-9.29,6.88,6.88,0,0,0-12.32-3.36c0-.09,0-.19,0-.28a10.67,10.67,0,1,0-21.33,0,10.51,10.51,0,0,0,.2,2l-.54,0a10.65,10.65,0,0,0-9.89,14.63,4,4,0,0,0-1.86-.46,4.08,4.08,0,0,0,0,8.16h67.25v0A5.87,5.87,0,0,0,856.21,159.43Z"/><path class="cls-3" d="M1038.26,126.28a2.52,2.52,0,0,0-2.53-2.51,2.43,2.43,0,0,0-.82.14,4.64,4.64,0,0,0-8.23-4,3,3,0,0,0-5.28-1.45v-.12a4.57,4.57,0,1,0-9.14,0,4.14,4.14,0,0,0,.09.87h-.23a4.57,4.57,0,0,0-4.24,6.27,1.79,1.79,0,0,0-.8-.2,1.75,1.75,0,0,0,0,3.5h28.82A2.52,2.52,0,0,0,1038.26,126.28Z"/><path class="cls-3" d="M1128,80.06a3.36,3.36,0,0,1,3.39-3.34,3.28,3.28,0,0,1,1.09.18,6.19,6.19,0,0,1,11-5.31,3.93,3.93,0,0,1,7-1.92c0-.06,0-.11,0-.16a6.1,6.1,0,1,1,12.19,0,6.42,6.42,0,0,1-.11,1.16l.3,0a6.09,6.09,0,0,1,5.66,8.36,2.33,2.33,0,1,1,1.06,4.4h-38.43A3.36,3.36,0,0,1,1128,80.06Z"/><path class="cls-3" d="M869.59,66.43A6.39,6.39,0,0,1,876,60.07a6.22,6.22,0,0,1,2.08.35,11.75,11.75,0,0,1,20.84-10.09,7.47,7.47,0,0,1,13.38-3.65c0-.1,0-.2,0-.31a11.58,11.58,0,0,1,23.16,0,11.32,11.32,0,0,1-.21,2.2l.58,0A11.58,11.58,0,0,1,947.4,60.13a11.4,11.4,0,0,1-.84,4.3,4.43,4.43,0,1,1,2,8.36h-73v0A6.38,6.38,0,0,1,869.59,66.43Z"/><path class="cls-3" d="M723.59,60.43A6.39,6.39,0,0,1,730,54.07a6.22,6.22,0,0,1,2.08.35,11.75,11.75,0,0,1,20.84-10.09,7.47,7.47,0,0,1,13.38-3.65c0-.1,0-.2,0-.31a11.58,11.58,0,0,1,23.16,0,11.32,11.32,0,0,1-.21,2.2l.58,0A11.58,11.58,0,0,1,801.4,54.13a11.4,11.4,0,0,1-.84,4.3,4.43,4.43,0,1,1,2,8.36h-73v0A6.38,6.38,0,0,1,723.59,60.43Z"/><path class="cls-3" d="M1093.48,87.23A4.21,4.21,0,0,1,1097.7,83a4.15,4.15,0,0,1,1.37.23,7.73,7.73,0,0,1,13.71-6.64,4.91,4.91,0,0,1,8.8-2.4c0-.07,0-.13,0-.2a7.62,7.62,0,1,1,15.1,1.45l.38,0a7.61,7.61,0,0,1,7.07,10.45,2.91,2.91,0,1,1,1.32,5.5h-48A4.2,4.2,0,0,1,1093.48,87.23Z"/><path class="cls-3" d="M1040.09,207.57a2.19,2.19,0,0,1,2.2-2.18,2.46,2.46,0,0,1,.71.12,4,4,0,0,1,7.13-3.45,2.55,2.55,0,0,1,4.57-1.25v-.1a4,4,0,1,1,7.92,0,4.65,4.65,0,0,1-.07.75h.19a3.95,3.95,0,0,1,3.68,5.43,1.6,1.6,0,0,1,.69-.17,1.52,1.52,0,0,1,0,3h-25A2.18,2.18,0,0,1,1040.09,207.57Z"/><path class="cls-3" d="M1287.18,275.9a5.89,5.89,0,0,0-5.92-5.86,6,6,0,0,0-1.91.32,10.83,10.83,0,0,0-19.2-9.29,6.88,6.88,0,0,0-12.32-3.36c0-.09,0-.19,0-.28a10.67,10.67,0,1,0-21.34,0,10.51,10.51,0,0,0,.2,2c-.18,0-.35,0-.53,0a10.65,10.65,0,0,0-9.9,14.63,4,4,0,0,0-1.85-.46,4.08,4.08,0,0,0,0,8.16h67.25v0A5.88,5.88,0,0,0,1287.18,275.9Z"/><path class="cls-3" d="M1469.23,242.75a2.53,2.53,0,0,0-2.54-2.51,2.48,2.48,0,0,0-.82.14,4.64,4.64,0,0,0-8.23-4,3,3,0,0,0-5.28-1.45s0-.07,0-.11a4.57,4.57,0,1,0-9.14,0,4.91,4.91,0,0,0,.08.86h-.23a4.57,4.57,0,0,0-4.24,6.27,1.75,1.75,0,1,0-.79,3.3h28.82A2.52,2.52,0,0,0,1469.23,242.75Z"/><path class="cls-3" d="M1558.93,196.53a3.35,3.35,0,0,1,3.38-3.34,3.28,3.28,0,0,1,1.09.18,6.19,6.19,0,0,1,11-5.31,3.93,3.93,0,0,1,7-1.92V186a6.1,6.1,0,1,1,12.19,0,6.43,6.43,0,0,1-.12,1.16l.31,0a6.09,6.09,0,0,1,5.65,8.36,2.37,2.37,0,0,1,1.06-.26,2.33,2.33,0,0,1,0,4.66h-38.43A3.36,3.36,0,0,1,1558.93,196.53Z"/><path class="cls-3" d="M1300.55,182.9a6.4,6.4,0,0,1,6.43-6.36,6.21,6.21,0,0,1,2.07.35,11.75,11.75,0,0,1,20.84-10.09,7.47,7.47,0,0,1,13.38-3.65c0-.1,0-.2,0-.31a11.58,11.58,0,1,1,22.94,2.21l.58,0a11.58,11.58,0,0,1,10.75,15.88,4.37,4.37,0,0,1,2-.5,4.43,4.43,0,1,1,0,8.86h-73v0A6.39,6.39,0,0,1,1300.55,182.9Z"/><path class="cls-3" d="M1154.55,176.9a6.4,6.4,0,0,1,6.43-6.36,6.21,6.21,0,0,1,2.07.35,11.75,11.75,0,0,1,20.84-10.09,7.47,7.47,0,0,1,13.38-3.65c0-.1,0-.2,0-.31a11.58,11.58,0,1,1,22.94,2.21l.58,0a11.58,11.58,0,0,1,10.75,15.88,4.37,4.37,0,0,1,2-.5,4.43,4.43,0,1,1,0,8.86h-73v0A6.39,6.39,0,0,1,1154.55,176.9Z"/><path class="cls-3" d="M1524.44,203.7a4.21,4.21,0,0,1,4.23-4.19,4.09,4.09,0,0,1,1.36.23,7.73,7.73,0,0,1,13.71-6.64,4.93,4.93,0,0,1,8.81-2.4,1.34,1.34,0,0,1,0-.2,7.62,7.62,0,1,1,15.09,1.45l.38,0a7.61,7.61,0,0,1,7.07,10.45,3,3,0,0,1,1.33-.33,2.92,2.92,0,0,1,0,5.83h-48A4.2,4.2,0,0,1,1524.44,203.7Z"/><path class="cls-3" d="M1471.05,324a2.2,2.2,0,0,1,2.2-2.18,2.35,2.35,0,0,1,.71.12,4,4,0,0,1,7.13-3.45,2.56,2.56,0,0,1,4.58-1.25s0-.07,0-.1a4,4,0,0,1,7.93,0,3.67,3.67,0,0,1-.08.75h.2a4,4,0,0,1,3.68,5.43,1.52,1.52,0,1,1,.68,2.87h-25A2.19,2.19,0,0,1,1471.05,324Z"/><path class="cls-3" d="M1781.55,152.55a5.89,5.89,0,0,0-5.92-5.86,6,6,0,0,0-1.91.32,10.83,10.83,0,0,0-19.2-9.29,6.88,6.88,0,0,0-12.32-3.36c0-.1,0-.19,0-.28a10.67,10.67,0,1,0-21.33,0,10.51,10.51,0,0,0,.2,2c-.18,0-.35,0-.53,0a10.65,10.65,0,0,0-9.9,14.63,4,4,0,0,0-1.85-.46,4.08,4.08,0,1,0,0,8.16h67.25v0A5.88,5.88,0,0,0,1781.55,152.55Z"/><path class="cls-3" d="M1794.92,59.55a6.4,6.4,0,0,1,6.43-6.36,6.46,6.46,0,0,1,2.07.34,11.75,11.75,0,0,1,20.84-10.08,7.47,7.47,0,0,1,13.38-3.65c0-.11,0-.2,0-.31a11.58,11.58,0,1,1,23.16,0,11.32,11.32,0,0,1-.22,2.2l.58,0a11.58,11.58,0,0,1,10.75,15.89,4.37,4.37,0,0,1,2-.5,4.43,4.43,0,0,1,0,8.86h-73v0A6.39,6.39,0,0,1,1794.92,59.55Z"/><path class="cls-3" d="M1648.92,53.55a6.4,6.4,0,0,1,6.43-6.36,6.46,6.46,0,0,1,2.07.34,11.75,11.75,0,0,1,20.84-10.08,7.47,7.47,0,0,1,13.38-3.65c0-.11,0-.2,0-.31a11.58,11.58,0,0,1,23.16,0,11.32,11.32,0,0,1-.22,2.2l.58,0a11.58,11.58,0,0,1,10.75,15.89,4.37,4.37,0,0,1,2-.5,4.43,4.43,0,0,1,0,8.86h-73v0A6.39,6.39,0,0,1,1648.92,53.55Z"/><path class="cls-3" d="M170.43,215.66a5.88,5.88,0,0,0-5.91-5.86,5.82,5.82,0,0,0-1.92.32,10.82,10.82,0,0,0-19.19-9.29,6.88,6.88,0,0,0-12.32-3.37c0-.09,0-.18,0-.28a10.67,10.67,0,0,0-21.33,0,10.43,10.43,0,0,0,.2,2l-.54,0a10.65,10.65,0,0,0-9.89,14.63,4.13,4.13,0,0,0-1.86-.46,4.09,4.09,0,0,0,0,8.17h67.25v0A5.88,5.88,0,0,0,170.43,215.66Z"/><path class="cls-3" d="M352.48,182.51A2.52,2.52,0,0,0,350,180a2.43,2.43,0,0,0-.82.14,4.64,4.64,0,0,0-8.23-4,2.95,2.95,0,0,0-5.28-1.44v-.12a4.57,4.57,0,0,0-9.14,0,4.14,4.14,0,0,0,.09.87h-.23a4.57,4.57,0,0,0-4.24,6.27,1.67,1.67,0,0,0-.8-.2,1.75,1.75,0,0,0,0,3.5h28.82A2.52,2.52,0,0,0,352.48,182.51Z"/><path class="cls-3" d="M442.18,136.29a3.37,3.37,0,0,1,3.39-3.35,3.56,3.56,0,0,1,1.09.18,6.19,6.19,0,0,1,11-5.31,3.93,3.93,0,0,1,7-1.92s0-.1,0-.16a6.1,6.1,0,0,1,12.19,0,6.34,6.34,0,0,1-.11,1.16l.3,0a6.09,6.09,0,0,1,5.66,8.36,2.33,2.33,0,1,1,1.06,4.41H445.33v0A3.36,3.36,0,0,1,442.18,136.29Z"/><path class="cls-3" d="M183.81,122.65a6.39,6.39,0,0,1,6.42-6.36,6.48,6.48,0,0,1,2.08.35,11.75,11.75,0,0,1,20.84-10.09,7.47,7.47,0,0,1,13.38-3.65c0-.1,0-.2,0-.3a11.58,11.58,0,1,1,23.16,0,11.4,11.4,0,0,1-.21,2.2c.19,0,.38,0,.58,0a11.58,11.58,0,0,1,11.58,11.58,11.4,11.4,0,0,1-.84,4.3,4.43,4.43,0,1,1,2,8.37h-73v0A6.37,6.37,0,0,1,183.81,122.65Z"/><path class="cls-3" d="M37.81,116.65a6.39,6.39,0,0,1,6.42-6.36,6.48,6.48,0,0,1,2.08.35,11.75,11.75,0,0,1,20.84-10.09A7.47,7.47,0,0,1,80.53,96.9c0-.1,0-.2,0-.3a11.58,11.58,0,0,1,23.16,0,11.4,11.4,0,0,1-.21,2.2c.19,0,.38,0,.58,0a11.58,11.58,0,0,1,11.58,11.58,11.4,11.4,0,0,1-.84,4.3,4.43,4.43,0,1,1,2,8.37h-73v0A6.37,6.37,0,0,1,37.81,116.65Z"/><path class="cls-3" d="M407.7,143.45a4.21,4.21,0,0,1,4.22-4.19,4.42,4.42,0,0,1,1.37.23A7.73,7.73,0,0,1,427,132.86a4.92,4.92,0,0,1,8.8-2.41c0-.06,0-.13,0-.19a7.62,7.62,0,1,1,15.1,1.44l.38,0a7.61,7.61,0,0,1,7.07,10.45,2.91,2.91,0,1,1,1.32,5.51h-48v0A4.2,4.2,0,0,1,407.7,143.45Z"/><path class="cls-3" d="M354.31,263.79a2.18,2.18,0,0,1,2.2-2.17,2.45,2.45,0,0,1,.71.11,4,4,0,0,1,7.13-3.45,2.55,2.55,0,0,1,4.57-1.25v-.1a4,4,0,1,1,7.92,0,4.54,4.54,0,0,1-.07.75H377a4,4,0,0,1,3.68,5.44,1.47,1.47,0,0,1,.69-.17,1.52,1.52,0,1,1,0,3h-25A2.18,2.18,0,0,1,354.31,263.79Z"/><path class="cls-4" d="M920.64,392.16c-1.69.52-4,1-6,1.39-23.42,4.47-36.86-3.42-40.8-6.47a.24.24,0,0,0-.38.2v74.9l-5.06,1.69c5.06,3.43,18.55,15.28,44.7,10.64,27.25-4.83,53.13-23.07,88.55-6.39V386.37C971.24,372.21,945.94,385.94,920.64,392.16Z"/><path class="cls-5" d="M908,449.21c-21.4,4.09-34.58-2.15-39.64-5.58v6.75c5.06,3.43,18.24,9.67,39.64,5.58,27.19-5.2,53.13-23.08,88.55-6.4v-6.74C961.12,426.14,935.18,444,908,449.21Z"/><path class="cls-6" d="M908,442.46c-21.4,4.09-34.58-2.15-39.64-5.58v6.75c5.06,3.43,18.24,9.67,39.64,5.58,27.19-5.2,53.13-23.07,88.55-6.39v-6.75C961.12,419.39,935.18,437.27,908,442.46Z"/><path class="cls-6" d="M908,456c-21.4,4.09-34.58-2.15-39.64-5.58v6.74c5.06,3.43,18.24,9.68,39.64,5.58,27.19-5.19,53.13-23.07,88.55-6.39v-6.75C961.12,432.88,935.18,450.76,908,456Z"/><path class="cls-6" d="M915.58,387.1v8.43c25.3-6.22,50.6-19.94,81-5.79v-8.43C966.18,367.15,940.88,380.88,915.58,387.1Z"/><path class="cls-5" d="M908,462.7c-21.4,4.1-34.58-2.15-39.64-5.58v6.75c5.06,3.43,18.24,9.67,39.64,5.58,27.19-5.2,53.13-23.07,88.55-6.39v-6.75C961.12,439.63,935.18,457.51,908,462.7Z"/><path class="cls-5" d="M908,437.4c-21.4,4.09-34.58-2.15-39.64-5.58v5.06c5.06,3.43,18.24,9.67,39.64,5.58,27.19-5.19,53.13-23.07,88.55-6.39V431C961.12,414.33,935.18,432.21,908,437.4Z"/><path class="cls-6" d="M915.58,402.28V409c25.3-6.22,50.6-19.95,81-5.8v-6.74C966.18,382.33,940.88,396.06,915.58,402.28Z"/><path class="cls-5" d="M915.58,395.53v6.75c25.3-6.22,50.6-19.95,81-5.79v-6.75C966.18,375.59,940.88,389.31,915.58,395.53Z"/><path class="cls-6" d="M908,430.66c-21.4,4.09-34.58-2.15-39.64-5.59v6.75c5.06,3.43,18.24,9.67,39.64,5.58,27.19-5.19,53.13-23.07,88.55-6.39v-6.75C961.12,407.58,935.18,425.46,908,430.66Z"/><path class="cls-5" d="M915.58,409v6.31c25.3-6.52,50.6-19.64,81-4.57v-7.54C966.18,389.08,940.88,402.81,915.58,409Z"/><path class="cls-7" d="M909.53,388.49c-23.42,4.47-36.86-3.42-40.8-6.47a.24.24,0,0,0-.38.2v36.11c5.06,3.43,18.09,9.67,39.5,5.58a50.89,50.89,0,0,0,7.73-1.83v-35C913.89,387.62,911.6,388.09,909.53,388.49Z"/><path class="cls-6" d="M915.58,415.34v6.74c25.3-6.51,50.6-19.63,81-4.57v-6.74C966.18,395.7,940.88,408.82,915.58,415.34Z"/><path class="cls-5" d="M915.58,422.08a50.89,50.89,0,0,1-7.73,1.83c-21.41,4.09-34.44-2.15-39.5-5.58v6.74c5.06,3.44,18.24,9.68,39.64,5.59,27.19-5.2,53.13-23.08,88.55-6.4v-6.75C966.18,402.45,940.88,415.57,915.58,422.08Z"/><polygon class="cls-8" points="871.93 388.06 872.31 388.83 873.16 388.96 872.55 389.56 872.69 390.41 871.93 390.01 871.17 390.41 871.32 389.56 870.7 388.96 871.55 388.83 871.93 388.06"/><polygon class="cls-8" points="875.3 391.44 875.69 392.21 876.54 392.33 875.92 392.93 876.07 393.78 875.3 393.38 874.54 393.78 874.69 392.93 874.07 392.33 874.92 392.21 875.3 391.44"/><polygon class="cls-8" points="875.3 398.19 875.69 398.96 876.54 399.08 875.92 399.68 876.07 400.53 875.3 400.13 874.54 400.53 874.69 399.68 874.07 399.08 874.92 398.96 875.3 398.19"/><polygon class="cls-8" points="875.3 404.93 875.69 405.7 876.54 405.83 875.92 406.43 876.07 407.27 875.3 406.87 874.54 407.27 874.69 406.43 874.07 405.83 874.92 405.7 875.3 404.93"/><polygon class="cls-8" points="875.3 411.68 875.69 412.45 876.54 412.57 875.92 413.17 876.07 414.02 875.3 413.62 874.54 414.02 874.69 413.17 874.07 412.57 874.92 412.45 875.3 411.68"/><polygon class="cls-8" points="871.93 401.56 872.31 402.33 873.16 402.45 872.55 403.05 872.69 403.9 871.93 403.5 871.17 403.9 871.32 403.05 870.7 402.45 871.55 402.33 871.93 401.56"/><polygon class="cls-8" points="871.93 394.81 872.31 395.58 873.16 395.71 872.55 396.31 872.69 397.15 871.93 396.75 871.17 397.15 871.32 396.31 870.7 395.71 871.55 395.58 871.93 394.81"/><polygon class="cls-8" points="871.93 415.05 872.31 415.82 873.16 415.95 872.55 416.55 872.69 417.39 871.93 416.99 871.17 417.39 871.32 416.55 870.7 415.95 871.55 415.82 871.93 415.05"/><polygon class="cls-8" points="871.93 408.31 872.31 409.08 873.16 409.2 872.55 409.8 872.69 410.65 871.93 410.25 871.17 410.65 871.32 409.8 870.7 409.2 871.55 409.08 871.93 408.31"/><polygon class="cls-8" points="878.68 389.75 879.06 390.52 879.91 390.65 879.29 391.25 879.44 392.09 878.68 391.69 877.92 392.09 878.06 391.25 877.45 390.65 878.3 390.52 878.68 389.75"/><polygon class="cls-8" points="882.05 393.13 882.43 393.9 883.28 394.02 882.67 394.62 882.81 395.47 882.05 395.07 881.29 395.47 881.44 394.62 880.82 394.02 881.67 393.9 882.05 393.13"/><polygon class="cls-8" points="882.05 399.87 882.43 400.64 883.28 400.77 882.67 401.37 882.81 402.21 882.05 401.81 881.29 402.21 881.44 401.37 880.82 400.77 881.67 400.64 882.05 399.87"/><polygon class="cls-8" points="882.05 406.62 882.43 407.39 883.28 407.51 882.67 408.11 882.81 408.96 882.05 408.56 881.29 408.96 881.44 408.11 880.82 407.51 881.67 407.39 882.05 406.62"/><polygon class="cls-8" points="882.05 413.37 882.43 414.14 883.28 414.26 882.67 414.86 882.81 415.71 882.05 415.31 881.29 415.71 881.44 414.86 880.82 414.26 881.67 414.14 882.05 413.37"/><polygon class="cls-8" points="878.68 403.25 879.06 404.02 879.91 404.14 879.29 404.74 879.44 405.59 878.68 405.19 877.92 405.59 878.06 404.74 877.45 404.14 878.3 404.02 878.68 403.25"/><polygon class="cls-8" points="878.68 396.5 879.06 397.27 879.91 397.39 879.29 397.99 879.44 398.84 878.68 398.44 877.92 398.84 878.06 397.99 877.45 397.39 878.3 397.27 878.68 396.5"/><polygon class="cls-8" points="878.68 416.74 879.06 417.51 879.91 417.63 879.29 418.23 879.44 419.08 878.68 418.68 877.92 419.08 878.06 418.23 877.45 417.63 878.3 417.51 878.68 416.74"/><polygon class="cls-8" points="878.68 409.99 879.06 410.76 879.91 410.89 879.29 411.49 879.44 412.33 878.68 411.93 877.92 412.33 878.06 411.49 877.45 410.89 878.3 410.76 878.68 409.99"/><polygon class="cls-8" points="885.43 391.44 885.81 392.21 886.66 392.33 886.04 392.93 886.19 393.78 885.43 393.38 884.66 393.78 884.81 392.93 884.2 392.33 885.04 392.21 885.43 391.44"/><polygon class="cls-8" points="888.8 394.81 889.18 395.58 890.03 395.71 889.41 396.31 889.56 397.15 888.8 396.75 888.04 397.15 888.18 396.31 887.57 395.71 888.42 395.58 888.8 394.81"/><polygon class="cls-8" points="888.8 401.56 889.18 402.33 890.03 402.45 889.41 403.05 889.56 403.9 888.8 403.5 888.04 403.9 888.18 403.05 887.57 402.45 888.42 402.33 888.8 401.56"/><polygon class="cls-8" points="888.8 408.31 889.18 409.08 890.03 409.2 889.41 409.8 889.56 410.65 888.8 410.25 888.04 410.65 888.18 409.8 887.57 409.2 888.42 409.08 888.8 408.31"/><polygon class="cls-8" points="888.8 415.05 889.18 415.82 890.03 415.95 889.41 416.55 889.56 417.39 888.8 416.99 888.04 417.39 888.18 416.55 887.57 415.95 888.42 415.82 888.8 415.05"/><polygon class="cls-8" points="885.43 404.93 885.81 405.7 886.66 405.83 886.04 406.43 886.19 407.27 885.43 406.87 884.66 407.27 884.81 406.43 884.2 405.83 885.04 405.7 885.43 404.93"/><polygon class="cls-8" points="885.43 398.19 885.81 398.96 886.66 399.08 886.04 399.68 886.19 400.53 885.43 400.13 884.66 400.53 884.81 399.68 884.2 399.08 885.04 398.96 885.43 398.19"/><polygon class="cls-8" points="885.43 418.43 885.81 419.2 886.66 419.32 886.04 419.92 886.19 420.77 885.43 420.37 884.66 420.77 884.81 419.92 884.2 419.32 885.04 419.2 885.43 418.43"/><polygon class="cls-8" points="885.43 411.68 885.81 412.45 886.66 412.57 886.04 413.17 886.19 414.02 885.43 413.62 884.66 414.02 884.81 413.17 884.2 412.57 885.04 412.45 885.43 411.68"/><polygon class="cls-8" points="892.17 391.44 892.55 392.21 893.4 392.33 892.79 392.93 892.93 393.78 892.17 393.38 891.41 393.78 891.56 392.93 890.94 392.33 891.79 392.21 892.17 391.44"/><polygon class="cls-8" points="895.55 394.81 895.93 395.58 896.78 395.71 896.16 396.31 896.31 397.15 895.55 396.75 894.78 397.15 894.93 396.31 894.32 395.71 895.17 395.58 895.55 394.81"/><polygon class="cls-8" points="895.55 401.56 895.93 402.33 896.78 402.45 896.16 403.05 896.31 403.9 895.55 403.5 894.78 403.9 894.93 403.05 894.32 402.45 895.17 402.33 895.55 401.56"/><polygon class="cls-8" points="895.55 408.31 895.93 409.08 896.78 409.2 896.16 409.8 896.31 410.65 895.55 410.25 894.78 410.65 894.93 409.8 894.32 409.2 895.17 409.08 895.55 408.31"/><polygon class="cls-8" points="895.55 415.05 895.93 415.82 896.78 415.95 896.16 416.55 896.31 417.39 895.55 416.99 894.78 417.39 894.93 416.55 894.32 415.95 895.17 415.82 895.55 415.05"/><polygon class="cls-8" points="892.17 404.93 892.55 405.7 893.4 405.83 892.79 406.43 892.93 407.27 892.17 406.87 891.41 407.27 891.56 406.43 890.94 405.83 891.79 405.7 892.17 404.93"/><polygon class="cls-8" points="892.17 398.19 892.55 398.96 893.4 399.08 892.79 399.68 892.93 400.53 892.17 400.13 891.41 400.53 891.56 399.68 890.94 399.08 891.79 398.96 892.17 398.19"/><polygon class="cls-8" points="892.17 418.43 892.55 419.2 893.4 419.32 892.79 419.92 892.93 420.77 892.17 420.37 891.41 420.77 891.56 419.92 890.94 419.32 891.79 419.2 892.17 418.43"/><polygon class="cls-8" points="892.17 411.68 892.55 412.45 893.4 412.57 892.79 413.17 892.93 414.02 892.17 413.62 891.41 414.02 891.56 413.17 890.94 412.57 891.79 412.45 892.17 411.68"/><polygon class="cls-8" points="898.92 391.44 899.3 392.21 900.15 392.33 899.53 392.93 899.68 393.78 898.92 393.38 898.16 393.78 898.3 392.93 897.69 392.33 898.54 392.21 898.92 391.44"/><polygon class="cls-8" points="902.29 394.81 902.67 395.58 903.52 395.71 902.91 396.31 903.05 397.15 902.29 396.75 901.53 397.15 901.68 396.31 901.06 395.71 901.91 395.58 902.29 394.81"/><polygon class="cls-8" points="902.29 401.56 902.67 402.33 903.52 402.45 902.91 403.05 903.05 403.9 902.29 403.5 901.53 403.9 901.68 403.05 901.06 402.45 901.91 402.33 902.29 401.56"/><polygon class="cls-8" points="902.29 408.31 902.67 409.08 903.52 409.2 902.91 409.8 903.05 410.65 902.29 410.25 901.53 410.65 901.68 409.8 901.06 409.2 901.91 409.08 902.29 408.31"/><polygon class="cls-8" points="902.29 415.05 902.67 415.82 903.52 415.95 902.91 416.55 903.05 417.39 902.29 416.99 901.53 417.39 901.68 416.55 901.06 415.95 901.91 415.82 902.29 415.05"/><polygon class="cls-8" points="898.92 404.93 899.3 405.7 900.15 405.83 899.53 406.43 899.68 407.27 898.92 406.87 898.16 407.27 898.3 406.43 897.69 405.83 898.54 405.7 898.92 404.93"/><polygon class="cls-8" points="898.92 398.19 899.3 398.96 900.15 399.08 899.53 399.68 899.68 400.53 898.92 400.13 898.16 400.53 898.3 399.68 897.69 399.08 898.54 398.96 898.92 398.19"/><polygon class="cls-8" points="898.92 418.43 899.3 419.2 900.15 419.32 899.53 419.92 899.68 420.77 898.92 420.37 898.16 420.77 898.3 419.92 897.69 419.32 898.54 419.2 898.92 418.43"/><polygon class="cls-8" points="898.92 411.68 899.3 412.45 900.15 412.57 899.53 413.17 899.68 414.02 898.92 413.62 898.16 414.02 898.3 413.17 897.69 412.57 898.54 412.45 898.92 411.68"/><polygon class="cls-8" points="905.67 389.75 906.05 390.52 906.9 390.65 906.28 391.25 906.43 392.09 905.67 391.69 904.91 392.09 905.05 391.25 904.44 390.65 905.29 390.52 905.67 389.75"/><polygon class="cls-8" points="909.04 393.13 909.42 393.9 910.27 394.02 909.66 394.62 909.8 395.47 909.04 395.07 908.28 395.47 908.42 394.62 907.81 394.02 908.66 393.9 909.04 393.13"/><polygon class="cls-8" points="912.41 389.75 912.79 390.52 913.64 390.65 913.03 391.25 913.17 392.09 912.41 391.69 911.65 392.09 911.8 391.25 911.18 390.65 912.03 390.52 912.41 389.75"/><polygon class="cls-8" points="912.41 396.5 912.79 397.27 913.64 397.39 913.03 397.99 913.17 398.84 912.41 398.44 911.65 398.84 911.8 397.99 911.18 397.39 912.03 397.27 912.41 396.5"/><polygon class="cls-8" points="909.04 399.87 909.42 400.64 910.27 400.77 909.66 401.37 909.8 402.21 909.04 401.81 908.28 402.21 908.42 401.37 907.81 400.77 908.66 400.64 909.04 399.87"/><polygon class="cls-8" points="912.41 403.25 912.79 404.02 913.64 404.14 913.03 404.74 913.17 405.59 912.41 405.19 911.65 405.59 911.8 404.74 911.18 404.14 912.03 404.02 912.41 403.25"/><polygon class="cls-8" points="909.04 406.62 909.42 407.39 910.27 407.51 909.66 408.11 909.8 408.96 909.04 408.56 908.28 408.96 908.42 408.11 907.81 407.51 908.66 407.39 909.04 406.62"/><polygon class="cls-8" points="912.41 409.99 912.79 410.76 913.64 410.89 913.03 411.49 913.17 412.33 912.41 411.93 911.65 412.33 911.8 411.49 911.18 410.89 912.03 410.76 912.41 409.99"/><polygon class="cls-8" points="909.04 413.37 909.42 414.14 910.27 414.26 909.66 414.86 909.8 415.71 909.04 415.31 908.28 415.71 908.42 414.86 907.81 414.26 908.66 414.14 909.04 413.37"/><polygon class="cls-8" points="912.41 416.74 912.79 417.51 913.64 417.63 913.03 418.23 913.17 419.08 912.41 418.68 911.65 419.08 911.8 418.23 911.18 417.63 912.03 417.51 912.41 416.74"/><polygon class="cls-8" points="905.67 403.25 906.05 404.02 906.9 404.14 906.28 404.74 906.43 405.59 905.67 405.19 904.91 405.59 905.05 404.74 904.44 404.14 905.29 404.02 905.67 403.25"/><polygon class="cls-8" points="905.67 396.5 906.05 397.27 906.9 397.39 906.28 397.99 906.43 398.84 905.67 398.44 904.91 398.84 905.05 397.99 904.44 397.39 905.29 397.27 905.67 396.5"/><polygon class="cls-8" points="905.67 418.43 906.05 419.2 906.9 419.32 906.28 419.92 906.43 420.77 905.67 420.37 904.91 420.77 905.05 419.92 904.44 419.32 905.29 419.2 905.67 418.43"/><polygon class="cls-8" points="905.67 409.99 906.05 410.76 906.9 410.89 906.28 411.49 906.43 412.33 905.67 411.93 904.91 412.33 905.05 411.49 904.44 410.89 905.29 410.76 905.67 409.99"/><path class="cls-5" d="M794.15,287.17c-1.61.31-3.15-.16-3.15-.42v.51c0,.25,1.54.73,3.15.42,2.06-.4,3.85-1.74,6.85-.49v-.5C798,285.43,796.21,286.78,794.15,287.17Z"/><path class="cls-6" d="M794.15,286.66c-1.61.31-3.15-.16-3.15-.42v.51c0,.26,1.54.73,3.15.42,2.06-.39,3.85-1.74,6.85-.48v-.51C798,284.92,796.21,286.27,794.15,286.66Z"/><path class="cls-6" d="M794.15,287.68c-1.61.31-3.15-.17-3.15-.42v.5c0,.26,1.54.73,3.15.43,2.06-.4,3.85-1.75,6.85-.49v-.51C798,285.94,796.21,287.28,794.15,287.68Z"/><path class="cls-8" d="M795,282.48v.64c2-.47,4-1.51,6-.44V282C799,281,797,282,795,282.48Z"/><path class="cls-5" d="M794.15,288.19c-1.61.3-3.15-.17-3.15-.43v.51c0,.26,1.54.73,3.15.42,2.06-.39,3.85-1.74,6.85-.48v-.51C798,286.44,796.21,287.79,794.15,288.19Z"/><path class="cls-5" d="M794.15,286.28c-1.61.31-3.15-.17-3.15-.42v.38c0,.26,1.54.73,3.15.42,2.06-.39,3.85-1.74,6.85-.48v-.39C798,284.54,796.21,285.88,794.15,286.28Z"/><path class="cls-8" d="M795,283.63v.51c2-.47,4-1.51,6-.44v-.51C799,282.12,797,283.16,795,283.63Z"/><path class="cls-5" d="M795,283.12v.51c2-.47,4-1.51,6-.44v-.51C799,281.61,797,282.65,795,283.12Z"/><path class="cls-6" d="M794.15,285.77c-1.61.31-3.15-.16-3.15-.42v.51c0,.25,1.54.73,3.15.42,2.06-.4,3.85-1.74,6.85-.49v-.5C798,284,796.21,285.38,794.15,285.77Z"/><path class="cls-5" d="M795,284.14v.47c2-.49,4-1.48,6-.34v-.57C799,282.63,797,283.67,795,284.14Z"/><path class="cls-7" d="M794.27,282.59a4.29,4.29,0,0,1-3.24-.52,0,0,0,0,0,0,0l0,.59,0,.48v1.69c0,.29,1.53.73,3.14.42.2,0,.73-.15.86-.2v-2.58C794.87,282.52,794.43,282.56,794.27,282.59Z"/><path class="cls-8" d="M795,284.61v.51c2-.49,4-1.48,6-.34v-.51C799,283.13,797,284.12,795,284.61Z"/><path class="cls-5" d="M794.81,285.12c-.13.05-.51.1-.71.14-1.61.31-3.1-.16-3.1-.42v.51c0,.26,1.54.73,3.15.42,2.06-.39,3.85-1.74,6.85-.48v-.51C799,283.64,796.72,284.63,794.81,285.12Z"/><polygon class="cls-8" points="791.43 282.55 791.46 282.61 791.53 282.62 791.48 282.67 791.49 282.73 791.43 282.7 791.38 282.73 791.39 282.67 791.34 282.62 791.4 282.61 791.43 282.55"/><polygon class="cls-8" points="791.69 282.81 791.72 282.87 791.78 282.88 791.74 282.92 791.75 282.99 791.69 282.95 791.63 282.99 791.64 282.92 791.6 282.88 791.66 282.87 791.69 282.81"/><polygon class="cls-8" points="791.69 283.32 791.72 283.38 791.78 283.38 791.74 283.43 791.75 283.49 791.69 283.46 791.63 283.49 791.64 283.43 791.6 283.38 791.66 283.38 791.69 283.32"/><polygon class="cls-8" points="791.69 283.83 791.72 283.88 791.78 283.89 791.74 283.94 791.75 284 791.69 283.97 791.63 284 791.64 283.94 791.6 283.89 791.66 283.88 791.69 283.83"/><polygon class="cls-8" points="791.69 284.34 791.72 284.39 791.78 284.4 791.74 284.45 791.75 284.51 791.69 284.48 791.63 284.51 791.64 284.45 791.6 284.4 791.66 284.39 791.69 284.34"/><polygon class="cls-8" points="791.43 283.57 791.46 283.63 791.53 283.64 791.48 283.69 791.49 283.75 791.43 283.72 791.38 283.75 791.39 283.69 791.34 283.64 791.4 283.63 791.43 283.57"/><polygon class="cls-8" points="791.43 283.06 791.46 283.12 791.53 283.13 791.48 283.18 791.49 283.24 791.43 283.21 791.38 283.24 791.39 283.18 791.34 283.13 791.4 283.12 791.43 283.06"/><polygon class="cls-8" points="791.43 284.59 791.46 284.65 791.53 284.66 791.48 284.7 791.49 284.77 791.43 284.74 791.38 284.77 791.39 284.7 791.34 284.66 791.4 284.65 791.43 284.59"/><polygon class="cls-8" points="791.43 284.08 791.46 284.14 791.53 284.15 791.48 284.19 791.49 284.26 791.43 284.23 791.38 284.26 791.39 284.19 791.34 284.15 791.4 284.14 791.43 284.08"/><polygon class="cls-8" points="791.94 282.68 791.97 282.74 792.04 282.75 791.99 282.79 792 282.86 791.94 282.83 791.89 282.86 791.9 282.79 791.85 282.75 791.91 282.74 791.94 282.68"/><polygon class="cls-8" points="792.2 282.94 792.23 282.99 792.29 283 792.24 283.05 792.25 283.11 792.2 283.08 792.14 283.11 792.15 283.05 792.11 283 792.17 282.99 792.2 282.94"/><polygon class="cls-8" points="792.2 283.44 792.23 283.5 792.29 283.51 792.24 283.56 792.25 283.62 792.2 283.59 792.14 283.62 792.15 283.56 792.11 283.51 792.17 283.5 792.2 283.44"/><polygon class="cls-8" points="792.2 283.95 792.23 284.01 792.29 284.02 792.24 284.07 792.25 284.13 792.2 284.1 792.14 284.13 792.15 284.07 792.11 284.02 792.17 284.01 792.2 283.95"/><polygon class="cls-8" points="792.2 284.46 792.23 284.52 792.29 284.53 792.24 284.58 792.25 284.64 792.2 284.61 792.14 284.64 792.15 284.58 792.11 284.53 792.17 284.52 792.2 284.46"/><polygon class="cls-8" points="791.94 283.7 791.97 283.76 792.04 283.77 791.99 283.81 792 283.88 791.94 283.85 791.89 283.88 791.9 283.81 791.85 283.77 791.91 283.76 791.94 283.7"/><polygon class="cls-8" points="791.94 283.19 791.97 283.25 792.04 283.26 791.99 283.3 792 283.37 791.94 283.34 791.89 283.37 791.9 283.3 791.85 283.26 791.91 283.25 791.94 283.19"/><polygon class="cls-8" points="791.94 284.72 791.97 284.78 792.04 284.79 791.99 284.83 792 284.89 791.94 284.86 791.89 284.89 791.9 284.83 791.85 284.79 791.91 284.78 791.94 284.72"/><polygon class="cls-8" points="791.94 284.21 791.97 284.27 792.04 284.28 791.99 284.32 792 284.38 791.94 284.36 791.89 284.38 791.9 284.32 791.85 284.28 791.91 284.27 791.94 284.21"/><polygon class="cls-8" points="792.45 282.81 792.48 282.87 792.54 282.88 792.5 282.92 792.51 282.99 792.45 282.95 792.39 282.99 792.41 282.92 792.36 282.88 792.42 282.87 792.45 282.81"/><polygon class="cls-8" points="792.71 283.06 792.74 283.12 792.8 283.13 792.75 283.18 792.76 283.24 792.71 283.21 792.65 283.24 792.66 283.18 792.61 283.13 792.68 283.12 792.71 283.06"/><polygon class="cls-8" points="792.71 283.57 792.74 283.63 792.8 283.64 792.75 283.69 792.76 283.75 792.71 283.72 792.65 283.75 792.66 283.69 792.61 283.64 792.68 283.63 792.71 283.57"/><polygon class="cls-8" points="792.71 284.08 792.74 284.14 792.8 284.15 792.75 284.19 792.76 284.26 792.71 284.23 792.65 284.26 792.66 284.19 792.61 284.15 792.68 284.14 792.71 284.08"/><polygon class="cls-8" points="792.71 284.59 792.74 284.65 792.8 284.66 792.75 284.7 792.76 284.77 792.71 284.74 792.65 284.77 792.66 284.7 792.61 284.66 792.68 284.65 792.71 284.59"/><polygon class="cls-8" points="792.45 283.83 792.48 283.88 792.54 283.89 792.5 283.94 792.51 284 792.45 283.97 792.39 284 792.41 283.94 792.36 283.89 792.42 283.88 792.45 283.83"/><polygon class="cls-8" points="792.45 283.32 792.48 283.38 792.54 283.38 792.5 283.43 792.51 283.49 792.45 283.46 792.39 283.49 792.41 283.43 792.36 283.38 792.42 283.38 792.45 283.32"/><polygon class="cls-8" points="792.45 284.85 792.48 284.9 792.54 284.91 792.5 284.96 792.51 285.02 792.45 284.99 792.39 285.02 792.41 284.96 792.36 284.91 792.42 284.9 792.45 284.85"/><polygon class="cls-8" points="792.45 284.34 792.48 284.39 792.54 284.4 792.5 284.45 792.51 284.51 792.45 284.48 792.39 284.51 792.41 284.45 792.36 284.4 792.42 284.39 792.45 284.34"/><polygon class="cls-8" points="792.96 282.81 792.99 282.87 793.05 282.88 793.01 282.92 793.02 282.99 792.96 282.95 792.9 282.99 792.91 282.92 792.87 282.88 792.93 282.87 792.96 282.81"/><polygon class="cls-8" points="793.22 283.06 793.24 283.12 793.31 283.13 793.26 283.18 793.27 283.24 793.22 283.21 793.16 283.24 793.17 283.18 793.12 283.13 793.19 283.12 793.22 283.06"/><polygon class="cls-8" points="793.22 283.57 793.24 283.63 793.31 283.64 793.26 283.69 793.27 283.75 793.22 283.72 793.16 283.75 793.17 283.69 793.12 283.64 793.19 283.63 793.22 283.57"/><polygon class="cls-8" points="793.22 284.08 793.24 284.14 793.31 284.15 793.26 284.19 793.27 284.26 793.22 284.23 793.16 284.26 793.17 284.19 793.12 284.15 793.19 284.14 793.22 284.08"/><polygon class="cls-8" points="793.22 284.59 793.24 284.65 793.31 284.66 793.26 284.7 793.27 284.77 793.22 284.74 793.16 284.77 793.17 284.7 793.12 284.66 793.19 284.65 793.22 284.59"/><polygon class="cls-8" points="792.96 283.83 792.99 283.88 793.05 283.89 793.01 283.94 793.02 284 792.96 283.97 792.9 284 792.91 283.94 792.87 283.89 792.93 283.88 792.96 283.83"/><polygon class="cls-8" points="792.96 283.32 792.99 283.38 793.05 283.38 793.01 283.43 793.02 283.49 792.96 283.46 792.9 283.49 792.91 283.43 792.87 283.38 792.93 283.38 792.96 283.32"/><polygon class="cls-8" points="792.96 284.85 792.99 284.9 793.05 284.91 793.01 284.96 793.02 285.02 792.96 284.99 792.9 285.02 792.91 284.96 792.87 284.91 792.93 284.9 792.96 284.85"/><polygon class="cls-8" points="792.96 284.34 792.99 284.39 793.05 284.4 793.01 284.45 793.02 284.51 792.96 284.48 792.9 284.51 792.91 284.45 792.87 284.4 792.93 284.39 792.96 284.34"/><polygon class="cls-8" points="793.47 282.81 793.5 282.87 793.56 282.88 793.52 282.92 793.53 282.99 793.47 282.95 793.41 282.99 793.42 282.92 793.38 282.88 793.44 282.87 793.47 282.81"/><polygon class="cls-8" points="793.73 283.06 793.75 283.12 793.82 283.13 793.77 283.18 793.78 283.24 793.73 283.21 793.67 283.24 793.68 283.18 793.63 283.13 793.7 283.12 793.73 283.06"/><polygon class="cls-8" points="793.73 283.57 793.75 283.63 793.82 283.64 793.77 283.69 793.78 283.75 793.73 283.72 793.67 283.75 793.68 283.69 793.63 283.64 793.7 283.63 793.73 283.57"/><polygon class="cls-8" points="793.73 284.08 793.75 284.14 793.82 284.15 793.77 284.19 793.78 284.26 793.73 284.23 793.67 284.26 793.68 284.19 793.63 284.15 793.7 284.14 793.73 284.08"/><polygon class="cls-8" points="793.73 284.59 793.75 284.65 793.82 284.66 793.77 284.7 793.78 284.77 793.73 284.74 793.67 284.77 793.68 284.7 793.63 284.66 793.7 284.65 793.73 284.59"/><polygon class="cls-8" points="793.47 283.83 793.5 283.88 793.56 283.89 793.52 283.94 793.53 284 793.47 283.97 793.41 284 793.42 283.94 793.38 283.89 793.44 283.88 793.47 283.83"/><polygon class="cls-8" points="793.47 283.32 793.5 283.38 793.56 283.38 793.52 283.43 793.53 283.49 793.47 283.46 793.41 283.49 793.42 283.43 793.38 283.38 793.44 283.38 793.47 283.32"/><polygon class="cls-8" points="793.47 284.85 793.5 284.9 793.56 284.91 793.52 284.96 793.53 285.02 793.47 284.99 793.41 285.02 793.42 284.96 793.38 284.91 793.44 284.9 793.47 284.85"/><polygon class="cls-8" points="793.47 284.34 793.5 284.39 793.56 284.4 793.52 284.45 793.53 284.51 793.47 284.48 793.41 284.51 793.42 284.45 793.38 284.4 793.44 284.39 793.47 284.34"/><polygon class="cls-8" points="793.98 282.68 794.01 282.74 794.07 282.75 794.03 282.79 794.04 282.86 793.98 282.83 793.92 282.86 793.93 282.79 793.89 282.75 793.95 282.74 793.98 282.68"/><polygon class="cls-8" points="794.23 282.94 794.26 282.99 794.33 283 794.28 283.05 794.29 283.11 794.23 283.08 794.18 283.11 794.19 283.05 794.14 283 794.21 282.99 794.23 282.94"/><polygon class="cls-8" points="794.49 282.68 794.52 282.74 794.58 282.75 794.53 282.79 794.55 282.86 794.49 282.83 794.43 282.86 794.44 282.79 794.4 282.75 794.46 282.74 794.49 282.68"/><polygon class="cls-8" points="794.49 283.19 794.52 283.25 794.58 283.26 794.53 283.3 794.55 283.37 794.49 283.34 794.43 283.37 794.44 283.3 794.4 283.26 794.46 283.25 794.49 283.19"/><polygon class="cls-8" points="794.23 283.44 794.26 283.5 794.33 283.51 794.28 283.56 794.29 283.62 794.23 283.59 794.18 283.62 794.19 283.56 794.14 283.51 794.21 283.5 794.23 283.44"/><polygon class="cls-8" points="794.49 283.7 794.52 283.76 794.58 283.77 794.53 283.81 794.55 283.88 794.49 283.85 794.43 283.88 794.44 283.81 794.4 283.77 794.46 283.76 794.49 283.7"/><polygon class="cls-8" points="794.23 283.95 794.26 284.01 794.33 284.02 794.28 284.07 794.29 284.13 794.23 284.1 794.18 284.13 794.19 284.07 794.14 284.02 794.21 284.01 794.23 283.95"/><polygon class="cls-8" points="794.49 284.21 794.52 284.27 794.58 284.28 794.53 284.32 794.55 284.38 794.49 284.36 794.43 284.38 794.44 284.32 794.4 284.28 794.46 284.27 794.49 284.21"/><polygon class="cls-8" points="794.23 284.46 794.26 284.52 794.33 284.53 794.28 284.58 794.29 284.64 794.23 284.61 794.18 284.64 794.19 284.58 794.14 284.53 794.21 284.52 794.23 284.46"/><polygon class="cls-8" points="794.49 284.72 794.52 284.78 794.58 284.79 794.53 284.83 794.55 284.89 794.49 284.86 794.43 284.89 794.44 284.83 794.4 284.79 794.46 284.78 794.49 284.72"/><polygon class="cls-8" points="793.98 283.7 794.01 283.76 794.07 283.77 794.03 283.81 794.04 283.88 793.98 283.85 793.92 283.88 793.93 283.81 793.89 283.77 793.95 283.76 793.98 283.7"/><polygon class="cls-8" points="793.98 283.19 794.01 283.25 794.07 283.26 794.03 283.3 794.04 283.37 793.98 283.34 793.92 283.37 793.93 283.3 793.89 283.26 793.95 283.25 793.98 283.19"/><polygon class="cls-8" points="793.98 284.85 794.01 284.9 794.07 284.91 794.03 284.96 794.04 285.02 793.98 284.99 793.92 285.02 793.93 284.96 793.89 284.91 793.95 284.9 793.98 284.85"/><polygon class="cls-8" points="793.98 284.21 794.01 284.27 794.07 284.28 794.03 284.32 794.04 284.38 793.98 284.36 793.92 284.38 793.93 284.32 793.89 284.28 793.95 284.27 793.98 284.21"/><path class="cls-9" d="M790.94,296.81h0a.16.16,0,0,1-.16-.15V281.91a.16.16,0,0,1,.16-.16h0a.16.16,0,0,1,.15.16v14.75A.15.15,0,0,1,790.94,296.81Z"/><path class="cls-5" d="M1127.15,288.17c-1.61.31-3.15-.16-3.15-.42v.51c0,.25,1.54.73,3.15.42,2.06-.4,3.85-1.74,6.85-.49v-.5C1131,286.43,1129.21,287.78,1127.15,288.17Z"/><path class="cls-6" d="M1127.15,287.66c-1.61.31-3.15-.16-3.15-.42v.51c0,.26,1.54.73,3.15.42,2.06-.39,3.85-1.74,6.85-.48v-.51C1131,285.92,1129.21,287.27,1127.15,287.66Z"/><path class="cls-6" d="M1127.15,288.68c-1.61.31-3.15-.17-3.15-.42v.5c0,.26,1.54.73,3.15.43,2.06-.4,3.85-1.75,6.85-.49v-.51C1131,286.94,1129.21,288.28,1127.15,288.68Z"/><path class="cls-8" d="M1128,283.48v.64c2-.47,4-1.51,6-.44V283C1132,282,1130,283,1128,283.48Z"/><path class="cls-5" d="M1127.15,289.19c-1.61.3-3.15-.17-3.15-.43v.51c0,.26,1.54.73,3.15.42,2.06-.39,3.85-1.74,6.85-.48v-.51C1131,287.44,1129.21,288.79,1127.15,289.19Z"/><path class="cls-5" d="M1127.15,287.28c-1.61.31-3.15-.17-3.15-.42v.38c0,.26,1.54.73,3.15.42,2.06-.39,3.85-1.74,6.85-.48v-.39C1131,285.54,1129.21,286.88,1127.15,287.28Z"/><path class="cls-8" d="M1128,284.63v.51c2-.47,4-1.51,6-.44v-.51C1132,283.12,1130,284.16,1128,284.63Z"/><path class="cls-5" d="M1128,284.12v.51c2-.47,4-1.51,6-.44v-.51C1132,282.61,1130,283.65,1128,284.12Z"/><path class="cls-6" d="M1127.15,286.77c-1.61.31-3.15-.16-3.15-.42v.51c0,.25,1.54.73,3.15.42,2.06-.4,3.85-1.74,6.85-.49v-.5C1131,285,1129.21,286.38,1127.15,286.77Z"/><path class="cls-5" d="M1128,285.14v.47c2-.49,4-1.48,6-.34v-.57C1132,283.63,1130,284.67,1128,285.14Z"/><path class="cls-7" d="M1127.27,283.59a4.29,4.29,0,0,1-3.24-.52,0,0,0,0,0,0,0l0,.59,0,.48v1.69c0,.29,1.53.73,3.14.42.2,0,.73-.15.86-.2v-2.58C1127.87,283.52,1127.43,283.56,1127.27,283.59Z"/><path class="cls-8" d="M1128,285.61v.51c2-.49,4-1.48,6-.34v-.51C1132,284.13,1130,285.12,1128,285.61Z"/><path class="cls-5" d="M1127.81,286.12c-.13.05-.51.1-.71.14-1.61.31-3.1-.16-3.1-.42v.51c0,.26,1.54.73,3.15.42,2.06-.39,3.85-1.74,6.85-.48v-.51C1132,284.64,1129.72,285.63,1127.81,286.12Z"/><polygon class="cls-8" points="1124.43 283.55 1124.46 283.61 1124.53 283.62 1124.48 283.67 1124.49 283.73 1124.43 283.7 1124.38 283.73 1124.39 283.67 1124.34 283.62 1124.4 283.61 1124.43 283.55"/><polygon class="cls-8" points="1124.69 283.81 1124.72 283.87 1124.78 283.88 1124.73 283.92 1124.75 283.99 1124.69 283.95 1124.63 283.99 1124.64 283.92 1124.6 283.88 1124.66 283.87 1124.69 283.81"/><polygon class="cls-8" points="1124.69 284.32 1124.72 284.38 1124.78 284.38 1124.73 284.43 1124.75 284.49 1124.69 284.46 1124.63 284.49 1124.64 284.43 1124.6 284.38 1124.66 284.38 1124.69 284.32"/><polygon class="cls-8" points="1124.69 284.83 1124.72 284.88 1124.78 284.89 1124.73 284.94 1124.75 285 1124.69 284.97 1124.63 285 1124.64 284.94 1124.6 284.89 1124.66 284.88 1124.69 284.83"/><polygon class="cls-8" points="1124.69 285.34 1124.72 285.39 1124.78 285.4 1124.73 285.45 1124.75 285.51 1124.69 285.48 1124.63 285.51 1124.64 285.45 1124.6 285.4 1124.66 285.39 1124.69 285.34"/><polygon class="cls-8" points="1124.43 284.57 1124.46 284.63 1124.53 284.64 1124.48 284.69 1124.49 284.75 1124.43 284.72 1124.38 284.75 1124.39 284.69 1124.34 284.64 1124.4 284.63 1124.43 284.57"/><polygon class="cls-8" points="1124.43 284.06 1124.46 284.12 1124.53 284.13 1124.48 284.18 1124.49 284.24 1124.43 284.21 1124.38 284.24 1124.39 284.18 1124.34 284.13 1124.4 284.12 1124.43 284.06"/><polygon class="cls-8" points="1124.43 285.59 1124.46 285.65 1124.53 285.66 1124.48 285.7 1124.49 285.77 1124.43 285.74 1124.38 285.77 1124.39 285.7 1124.34 285.66 1124.4 285.65 1124.43 285.59"/><polygon class="cls-8" points="1124.43 285.08 1124.46 285.14 1124.53 285.15 1124.48 285.19 1124.49 285.26 1124.43 285.23 1124.38 285.26 1124.39 285.19 1124.34 285.15 1124.4 285.14 1124.43 285.08"/><polygon class="cls-8" points="1124.94 283.68 1124.97 283.74 1125.04 283.75 1124.99 283.79 1125 283.86 1124.94 283.83 1124.89 283.86 1124.9 283.79 1124.85 283.75 1124.91 283.74 1124.94 283.68"/><polygon class="cls-8" points="1125.2 283.94 1125.23 283.99 1125.29 284 1125.24 284.05 1125.26 284.11 1125.2 284.08 1125.14 284.11 1125.15 284.05 1125.11 284 1125.17 283.99 1125.2 283.94"/><polygon class="cls-8" points="1125.2 284.44 1125.23 284.5 1125.29 284.51 1125.24 284.56 1125.26 284.62 1125.2 284.59 1125.14 284.62 1125.15 284.56 1125.11 284.51 1125.17 284.5 1125.2 284.44"/><polygon class="cls-8" points="1125.2 284.95 1125.23 285.01 1125.29 285.02 1125.24 285.07 1125.26 285.13 1125.2 285.1 1125.14 285.13 1125.15 285.07 1125.11 285.02 1125.17 285.01 1125.2 284.95"/><polygon class="cls-8" points="1125.2 285.46 1125.23 285.52 1125.29 285.53 1125.24 285.58 1125.26 285.64 1125.2 285.61 1125.14 285.64 1125.15 285.58 1125.11 285.53 1125.17 285.52 1125.2 285.46"/><polygon class="cls-8" points="1124.94 284.7 1124.97 284.76 1125.04 284.77 1124.99 284.81 1125 284.88 1124.94 284.85 1124.89 284.88 1124.9 284.81 1124.85 284.77 1124.91 284.76 1124.94 284.7"/><polygon class="cls-8" points="1124.94 284.19 1124.97 284.25 1125.04 284.26 1124.99 284.3 1125 284.37 1124.94 284.34 1124.89 284.37 1124.9 284.3 1124.85 284.26 1124.91 284.25 1124.94 284.19"/><polygon class="cls-8" points="1124.94 285.72 1124.97 285.78 1125.04 285.79 1124.99 285.83 1125 285.89 1124.94 285.86 1124.89 285.89 1124.9 285.83 1124.85 285.79 1124.91 285.78 1124.94 285.72"/><polygon class="cls-8" points="1124.94 285.21 1124.97 285.27 1125.04 285.28 1124.99 285.32 1125 285.38 1124.94 285.36 1124.89 285.38 1124.9 285.32 1124.85 285.28 1124.91 285.27 1124.94 285.21"/><polygon class="cls-8" points="1125.45 283.81 1125.48 283.87 1125.55 283.88 1125.5 283.92 1125.51 283.99 1125.45 283.95 1125.39 283.99 1125.41 283.92 1125.36 283.88 1125.42 283.87 1125.45 283.81"/><polygon class="cls-8" points="1125.71 284.06 1125.73 284.12 1125.8 284.13 1125.75 284.18 1125.76 284.24 1125.71 284.21 1125.65 284.24 1125.66 284.18 1125.61 284.13 1125.68 284.12 1125.71 284.06"/><polygon class="cls-8" points="1125.71 284.57 1125.73 284.63 1125.8 284.64 1125.75 284.69 1125.76 284.75 1125.71 284.72 1125.65 284.75 1125.66 284.69 1125.61 284.64 1125.68 284.63 1125.71 284.57"/><polygon class="cls-8" points="1125.71 285.08 1125.73 285.14 1125.8 285.15 1125.75 285.19 1125.76 285.26 1125.71 285.23 1125.65 285.26 1125.66 285.19 1125.61 285.15 1125.68 285.14 1125.71 285.08"/><polygon class="cls-8" points="1125.71 285.59 1125.73 285.65 1125.8 285.66 1125.75 285.7 1125.76 285.77 1125.71 285.74 1125.65 285.77 1125.66 285.7 1125.61 285.66 1125.68 285.65 1125.71 285.59"/><polygon class="cls-8" points="1125.45 284.83 1125.48 284.88 1125.55 284.89 1125.5 284.94 1125.51 285 1125.45 284.97 1125.39 285 1125.41 284.94 1125.36 284.89 1125.42 284.88 1125.45 284.83"/><polygon class="cls-8" points="1125.45 284.32 1125.48 284.38 1125.55 284.38 1125.5 284.43 1125.51 284.49 1125.45 284.46 1125.39 284.49 1125.41 284.43 1125.36 284.38 1125.42 284.38 1125.45 284.32"/><polygon class="cls-8" points="1125.45 285.85 1125.48 285.9 1125.55 285.91 1125.5 285.96 1125.51 286.02 1125.45 285.99 1125.39 286.02 1125.41 285.96 1125.36 285.91 1125.42 285.9 1125.45 285.85"/><polygon class="cls-8" points="1125.45 285.34 1125.48 285.39 1125.55 285.4 1125.5 285.45 1125.51 285.51 1125.45 285.48 1125.39 285.51 1125.41 285.45 1125.36 285.4 1125.42 285.39 1125.45 285.34"/><polygon class="cls-8" points="1125.96 283.81 1125.99 283.87 1126.05 283.88 1126.01 283.92 1126.02 283.99 1125.96 283.95 1125.9 283.99 1125.91 283.92 1125.87 283.88 1125.93 283.87 1125.96 283.81"/><polygon class="cls-8" points="1126.22 284.06 1126.24 284.12 1126.31 284.13 1126.26 284.18 1126.27 284.24 1126.22 284.21 1126.16 284.24 1126.17 284.18 1126.12 284.13 1126.19 284.12 1126.22 284.06"/><polygon class="cls-8" points="1126.22 284.57 1126.24 284.63 1126.31 284.64 1126.26 284.69 1126.27 284.75 1126.22 284.72 1126.16 284.75 1126.17 284.69 1126.12 284.64 1126.19 284.63 1126.22 284.57"/><polygon class="cls-8" points="1126.22 285.08 1126.24 285.14 1126.31 285.15 1126.26 285.19 1126.27 285.26 1126.22 285.23 1126.16 285.26 1126.17 285.19 1126.12 285.15 1126.19 285.14 1126.22 285.08"/><polygon class="cls-8" points="1126.22 285.59 1126.24 285.65 1126.31 285.66 1126.26 285.7 1126.27 285.77 1126.22 285.74 1126.16 285.77 1126.17 285.7 1126.12 285.66 1126.19 285.65 1126.22 285.59"/><polygon class="cls-8" points="1125.96 284.83 1125.99 284.88 1126.05 284.89 1126.01 284.94 1126.02 285 1125.96 284.97 1125.9 285 1125.91 284.94 1125.87 284.89 1125.93 284.88 1125.96 284.83"/><polygon class="cls-8" points="1125.96 284.32 1125.99 284.38 1126.05 284.38 1126.01 284.43 1126.02 284.49 1125.96 284.46 1125.9 284.49 1125.91 284.43 1125.87 284.38 1125.93 284.38 1125.96 284.32"/><polygon class="cls-8" points="1125.96 285.85 1125.99 285.9 1126.05 285.91 1126.01 285.96 1126.02 286.02 1125.96 285.99 1125.9 286.02 1125.91 285.96 1125.87 285.91 1125.93 285.9 1125.96 285.85"/><polygon class="cls-8" points="1125.96 285.34 1125.99 285.39 1126.05 285.4 1126.01 285.45 1126.02 285.51 1125.96 285.48 1125.9 285.51 1125.91 285.45 1125.87 285.4 1125.93 285.39 1125.96 285.34"/><polygon class="cls-8" points="1126.47 283.81 1126.5 283.87 1126.56 283.88 1126.52 283.92 1126.53 283.99 1126.47 283.95 1126.41 283.99 1126.42 283.92 1126.38 283.88 1126.44 283.87 1126.47 283.81"/><polygon class="cls-8" points="1126.72 284.06 1126.75 284.12 1126.82 284.13 1126.77 284.18 1126.78 284.24 1126.72 284.21 1126.67 284.24 1126.68 284.18 1126.63 284.13 1126.7 284.12 1126.72 284.06"/><polygon class="cls-8" points="1126.72 284.57 1126.75 284.63 1126.82 284.64 1126.77 284.69 1126.78 284.75 1126.72 284.72 1126.67 284.75 1126.68 284.69 1126.63 284.64 1126.7 284.63 1126.72 284.57"/><polygon class="cls-8" points="1126.72 285.08 1126.75 285.14 1126.82 285.15 1126.77 285.19 1126.78 285.26 1126.72 285.23 1126.67 285.26 1126.68 285.19 1126.63 285.15 1126.7 285.14 1126.72 285.08"/><polygon class="cls-8" points="1126.72 285.59 1126.75 285.65 1126.82 285.66 1126.77 285.7 1126.78 285.77 1126.72 285.74 1126.67 285.77 1126.68 285.7 1126.63 285.66 1126.7 285.65 1126.72 285.59"/><polygon class="cls-8" points="1126.47 284.83 1126.5 284.88 1126.56 284.89 1126.52 284.94 1126.53 285 1126.47 284.97 1126.41 285 1126.42 284.94 1126.38 284.89 1126.44 284.88 1126.47 284.83"/><polygon class="cls-8" points="1126.47 284.32 1126.5 284.38 1126.56 284.38 1126.52 284.43 1126.53 284.49 1126.47 284.46 1126.41 284.49 1126.42 284.43 1126.38 284.38 1126.44 284.38 1126.47 284.32"/><polygon class="cls-8" points="1126.47 285.85 1126.5 285.9 1126.56 285.91 1126.52 285.96 1126.53 286.02 1126.47 285.99 1126.41 286.02 1126.42 285.96 1126.38 285.91 1126.44 285.9 1126.47 285.85"/><polygon class="cls-8" points="1126.47 285.34 1126.5 285.39 1126.56 285.4 1126.52 285.45 1126.53 285.51 1126.47 285.48 1126.41 285.51 1126.42 285.45 1126.38 285.4 1126.44 285.39 1126.47 285.34"/><polygon class="cls-8" points="1126.98 283.68 1127.01 283.74 1127.07 283.75 1127.03 283.79 1127.04 283.86 1126.98 283.83 1126.92 283.86 1126.93 283.79 1126.89 283.75 1126.95 283.74 1126.98 283.68"/><polygon class="cls-8" points="1127.23 283.94 1127.26 283.99 1127.33 284 1127.28 284.05 1127.29 284.11 1127.23 284.08 1127.18 284.11 1127.19 284.05 1127.14 284 1127.2 283.99 1127.23 283.94"/><polygon class="cls-8" points="1127.49 283.68 1127.52 283.74 1127.58 283.75 1127.54 283.79 1127.55 283.86 1127.49 283.83 1127.43 283.86 1127.44 283.79 1127.4 283.75 1127.46 283.74 1127.49 283.68"/><polygon class="cls-8" points="1127.49 284.19 1127.52 284.25 1127.58 284.26 1127.54 284.3 1127.55 284.37 1127.49 284.34 1127.43 284.37 1127.44 284.3 1127.4 284.26 1127.46 284.25 1127.49 284.19"/><polygon class="cls-8" points="1127.23 284.44 1127.26 284.5 1127.33 284.51 1127.28 284.56 1127.29 284.62 1127.23 284.59 1127.18 284.62 1127.19 284.56 1127.14 284.51 1127.2 284.5 1127.23 284.44"/><polygon class="cls-8" points="1127.49 284.7 1127.52 284.76 1127.58 284.77 1127.54 284.81 1127.55 284.88 1127.49 284.85 1127.43 284.88 1127.44 284.81 1127.4 284.77 1127.46 284.76 1127.49 284.7"/><polygon class="cls-8" points="1127.23 284.95 1127.26 285.01 1127.33 285.02 1127.28 285.07 1127.29 285.13 1127.23 285.1 1127.18 285.13 1127.19 285.07 1127.14 285.02 1127.2 285.01 1127.23 284.95"/><polygon class="cls-8" points="1127.49 285.21 1127.52 285.27 1127.58 285.28 1127.54 285.32 1127.55 285.38 1127.49 285.36 1127.43 285.38 1127.44 285.32 1127.4 285.28 1127.46 285.27 1127.49 285.21"/><polygon class="cls-8" points="1127.23 285.46 1127.26 285.52 1127.33 285.53 1127.28 285.58 1127.29 285.64 1127.23 285.61 1127.18 285.64 1127.19 285.58 1127.14 285.53 1127.2 285.52 1127.23 285.46"/><polygon class="cls-8" points="1127.49 285.72 1127.52 285.78 1127.58 285.79 1127.54 285.83 1127.55 285.89 1127.49 285.86 1127.43 285.89 1127.44 285.83 1127.4 285.79 1127.46 285.78 1127.49 285.72"/><polygon class="cls-8" points="1126.98 284.7 1127.01 284.76 1127.07 284.77 1127.03 284.81 1127.04 284.88 1126.98 284.85 1126.92 284.88 1126.93 284.81 1126.89 284.77 1126.95 284.76 1126.98 284.7"/><polygon class="cls-8" points="1126.98 284.19 1127.01 284.25 1127.07 284.26 1127.03 284.3 1127.04 284.37 1126.98 284.34 1126.92 284.37 1126.93 284.3 1126.89 284.26 1126.95 284.25 1126.98 284.19"/><polygon class="cls-8" points="1126.98 285.85 1127.01 285.9 1127.07 285.91 1127.03 285.96 1127.04 286.02 1126.98 285.99 1126.92 286.02 1126.93 285.96 1126.89 285.91 1126.95 285.9 1126.98 285.85"/><polygon class="cls-8" points="1126.98 285.21 1127.01 285.27 1127.07 285.28 1127.03 285.32 1127.04 285.38 1126.98 285.36 1126.92 285.38 1126.93 285.32 1126.89 285.28 1126.95 285.27 1126.98 285.21"/><path class="cls-9" d="M1123.94,297.81h0a.16.16,0,0,1-.16-.15V282.91a.16.16,0,0,1,.16-.16h0a.16.16,0,0,1,.15.16v14.75A.15.15,0,0,1,1123.94,297.81Z"/><text/><text class="cls-10" transform="translate(765.83 532.38)">US CONGRESS</text><text class="cls-11" transform="translate(872.5 549.48)">WASHINGTON DC</text><rect class="cls-12" x="746.7" y="284.94" width="38.86" height="60.81"/><rect class="cls-13" x="739.2" y="284.83" width="50.72" height="8.02"/><rect class="cls-14" x="739.2" y="340.35" width="46.26" height="5.44"/><path class="cls-15" d="M763.68,340.28h-3.07v-10a1.54,1.54,0,0,1,1.54-1.54h0a1.54,1.54,0,0,1,1.53,1.54Z"/><path class="cls-15" d="M756.43,340.28h-3.06v-10a1.53,1.53,0,0,1,1.53-1.54h0a1.53,1.53,0,0,1,1.53,1.54Z"/><path class="cls-15" d="M771.75,340.28h-3.07v-10a1.54,1.54,0,0,1,1.53-1.54h0a1.54,1.54,0,0,1,1.54,1.54Z"/><path class="cls-15" d="M779.82,340.28h-3.07v-10a1.54,1.54,0,0,1,1.53-1.54h0a1.54,1.54,0,0,1,1.54,1.54Z"/><path class="cls-15" d="M778.5,321.37h-1.79v-5.5a.89.89,0,0,1,.9-.89h0a.89.89,0,0,1,.89.89Z"/><rect class="cls-15" x="776.46" y="303.89" width="2.07" height="2.07"/><path class="cls-15" d="M771.06,321.37h-1.79v-5.5a.89.89,0,0,1,.89-.89h0a.89.89,0,0,1,.9.89Z"/><rect class="cls-15" x="769.02" y="303.89" width="2.07" height="2.07"/><path class="cls-15" d="M763.51,321.37h-1.78v-5.5a.89.89,0,0,1,.89-.89h0a.89.89,0,0,1,.89.89Z"/><rect class="cls-15" x="761.47" y="303.89" width="2.07" height="2.07"/><path class="cls-15" d="M756.07,321.37h-1.78v-5.5a.89.89,0,0,1,.89-.89h0a.89.89,0,0,1,.89.89Z"/><rect class="cls-15" x="754.03" y="303.89" width="2.07" height="2.07"/><rect class="cls-16" x="747.46" y="284.76" width="6.92" height="60.95"/><rect class="cls-16" x="778.58" y="284.76" width="6.92" height="60.95"/><rect class="cls-12" x="1088.68" y="284.94" width="38.86" height="60.81" transform="translate(2216.23 630.7) rotate(180)"/><rect class="cls-13" x="1084.32" y="284.83" width="50.72" height="8.02" transform="translate(2219.35 577.67) rotate(180)"/><rect class="cls-14" x="1088.78" y="340.35" width="46.26" height="5.44" transform="translate(2223.82 686.13) rotate(180)"/><path class="cls-15" d="M1110.56,340.28h3.07v-10a1.54,1.54,0,0,0-1.53-1.54h0a1.54,1.54,0,0,0-1.54,1.54Z"/><path class="cls-15" d="M1117.81,340.28h3.07v-10a1.54,1.54,0,0,0-1.54-1.54h0a1.54,1.54,0,0,0-1.53,1.54Z"/><path class="cls-15" d="M1102.5,340.28h3.06v-10a1.54,1.54,0,0,0-1.53-1.54h0a1.53,1.53,0,0,0-1.53,1.54Z"/><path class="cls-15" d="M1094.43,340.28h3.06v-10a1.54,1.54,0,0,0-1.53-1.54h0a1.53,1.53,0,0,0-1.53,1.54Z"/><path class="cls-15" d="M1095.74,321.37h1.79v-5.5a.89.89,0,0,0-.89-.89h0a.89.89,0,0,0-.9.89Z"/><rect class="cls-15" x="1095.72" y="303.89" width="2.07" height="2.07" transform="translate(2193.5 609.84) rotate(180)"/><path class="cls-15" d="M1103.19,321.37H1105v-5.5a.89.89,0,0,0-.89-.89h0a.89.89,0,0,0-.89.89Z"/><rect class="cls-15" x="1103.16" y="303.89" width="2.07" height="2.07" transform="translate(2208.39 609.84) rotate(180)"/><path class="cls-15" d="M1110.73,321.37h1.78v-5.5a.89.89,0,0,0-.89-.89h0a.89.89,0,0,0-.89.89Z"/><rect class="cls-15" x="1110.7" y="303.89" width="2.07" height="2.07" transform="translate(2223.47 609.84) rotate(180)"/><path class="cls-15" d="M1118.17,321.37H1120v-5.5a.89.89,0,0,0-.9-.89h0a.89.89,0,0,0-.89.89Z"/><rect class="cls-15" x="1118.15" y="303.89" width="2.07" height="2.07" transform="translate(2238.36 609.84) rotate(180)"/><rect class="cls-16" x="1119.87" y="284.76" width="6.92" height="60.95" transform="translate(2246.65 630.47) rotate(180)"/><rect class="cls-16" x="1088.74" y="284.76" width="6.92" height="60.95" transform="translate(2184.4 630.47) rotate(180)"/><rect class="cls-1" x="652.41" y="292.56" width="95.38" height="52.67"/><rect class="cls-1" x="652.41" y="285.44" width="95.38" height="7.12"/><rect class="cls-17" x="649.7" y="291.69" width="100.62" height="2.8"/><path class="cls-15" d="M664.36,342h-4.12V329.32a2.05,2.05,0,0,1,2.06-2.05h0a2.05,2.05,0,0,1,2.06,2.05Z"/><path class="cls-15" d="M663.17,318.63h-2.56v-7.88a1.28,1.28,0,0,1,1.28-1.28h0a1.28,1.28,0,0,1,1.28,1.28Z"/><path class="cls-15" d="M673.87,318.63h-2.56v-7.88a1.28,1.28,0,0,1,1.28-1.28h0a1.28,1.28,0,0,1,1.28,1.28Z"/><path class="cls-15" d="M684.74,318.63h-2.56v-7.88a1.28,1.28,0,0,1,1.28-1.28h0a1.28,1.28,0,0,1,1.28,1.28Z"/><path class="cls-15" d="M695.61,318.63h-2.56v-7.88a1.28,1.28,0,0,1,1.28-1.28h0a1.28,1.28,0,0,1,1.28,1.28Z"/><path class="cls-15" d="M706.31,318.63h-2.56v-7.88a1.28,1.28,0,0,1,1.28-1.28h0a1.28,1.28,0,0,1,1.28,1.28Z"/><path class="cls-15" d="M717.18,318.63h-2.56v-7.88a1.28,1.28,0,0,1,1.28-1.28h0a1.28,1.28,0,0,1,1.28,1.28Z"/><path class="cls-15" d="M728.05,318.63h-2.56v-7.88a1.28,1.28,0,0,1,1.28-1.28h0a1.28,1.28,0,0,1,1.28,1.28Z"/><path class="cls-15" d="M739.08,318.63h-2.56v-7.88a1.28,1.28,0,0,1,1.28-1.28h0a1.28,1.28,0,0,1,1.28,1.28Z"/><path class="cls-15" d="M675.23,342.09h-4.12V329.41a2.06,2.06,0,0,1,2.06-2.06h0a2.06,2.06,0,0,1,2.06,2.06Z"/><path class="cls-15" d="M685.6,342h-4.12V329.32a2.06,2.06,0,0,1,2.06-2.05h0a2.05,2.05,0,0,1,2.06,2.05Z"/><path class="cls-15" d="M696.47,342.09h-4.12V329.41a2.06,2.06,0,0,1,2.06-2.06h0a2.06,2.06,0,0,1,2.06,2.06Z"/><path class="cls-15" d="M707.09,342H703V329.32a2.06,2.06,0,0,1,2.06-2.05h0a2.05,2.05,0,0,1,2.06,2.05Z"/><path class="cls-15" d="M718,342.09h-4.12V329.41a2.06,2.06,0,0,1,2.06-2.06h0a2.06,2.06,0,0,1,2.06,2.06Z"/><path class="cls-15" d="M728.34,342h-4.12V329.32a2.05,2.05,0,0,1,2.06-2.05h0a2.06,2.06,0,0,1,2.06,2.05Z"/><path class="cls-15" d="M739.2,342.09h-4.11V329.41a2.06,2.06,0,0,1,2.06-2.06h0a2.05,2.05,0,0,1,2.05,2.06Z"/><rect class="cls-15" x="660.24" y="298.36" width="2.96" height="2.96"/><rect class="cls-15" x="671.27" y="298.36" width="2.96" height="2.96"/><rect class="cls-15" x="681.98" y="298.36" width="2.96" height="2.96"/><rect class="cls-15" x="693.01" y="298.36" width="2.96" height="2.96"/><rect class="cls-15" x="703.8" y="298.36" width="2.96" height="2.96"/><rect class="cls-15" x="714.91" y="298.28" width="2.96" height="2.96"/><rect class="cls-15" x="725.62" y="298.28" width="2.96" height="2.96"/><rect class="cls-15" x="736.16" y="298.28" width="2.96" height="2.96"/><rect class="cls-18" x="651.66" y="294.48" width="96.8" height="0.46"/><rect class="cls-18" x="651.68" y="288.25" width="96.8" height="0.46"/><rect class="cls-14" x="649.54" y="282.47" width="100.62" height="5.76"/><rect class="cls-14" x="649.54" y="322.78" width="100.62" height="3.2"/><rect class="cls-14" x="664.44" y="287.74" width="4.61" height="2.63"/><rect class="cls-14" x="664.44" y="320.51" width="4.61" height="2.63"/><rect class="cls-14" x="665.02" y="289.88" width="3.38" height="30.71"/><rect class="cls-14" x="675.39" y="287.74" width="4.61" height="2.63"/><rect class="cls-14" x="675.39" y="320.51" width="4.61" height="2.63"/><rect class="cls-14" x="675.97" y="289.88" width="3.38" height="30.71"/><rect class="cls-14" x="686.67" y="287.74" width="4.61" height="2.63"/><rect class="cls-14" x="686.67" y="320.51" width="4.61" height="2.63"/><rect class="cls-14" x="687.25" y="289.88" width="3.38" height="30.71"/><rect class="cls-14" x="697.62" y="287.74" width="4.61" height="2.63"/><rect class="cls-14" x="697.62" y="320.51" width="4.61" height="2.63"/><rect class="cls-14" x="698.2" y="289.88" width="3.38" height="30.71"/><rect class="cls-14" x="708.57" y="287.74" width="4.61" height="2.63"/><rect class="cls-14" x="708.57" y="320.51" width="4.61" height="2.63"/><rect class="cls-14" x="709.15" y="289.88" width="3.38" height="30.71"/><rect class="cls-14" x="719.69" y="287.74" width="4.61" height="2.63"/><rect class="cls-14" x="719.69" y="320.51" width="4.61" height="2.63"/><rect class="cls-14" x="720.27" y="289.88" width="3.38" height="30.71"/><rect class="cls-14" x="730.39" y="287.74" width="4.61" height="2.63"/><rect class="cls-14" x="730.39" y="320.51" width="4.61" height="2.63"/><rect class="cls-14" x="730.97" y="289.88" width="3.38" height="30.71"/><rect class="cls-18" x="649.58" y="325.99" width="100.58" height="0.54"/><path class="cls-15" d="M848.6,318.63H846v-7.88a1.28,1.28,0,0,1,1.28-1.28h0a1.28,1.28,0,0,1,1.28,1.28Z"/><path class="cls-15" d="M859.47,318.63h-2.56v-7.88a1.28,1.28,0,0,1,1.28-1.28h0a1.28,1.28,0,0,1,1.28,1.28Z"/><path class="cls-15" d="M849.38,342.09h-4.12V329.41a2.06,2.06,0,0,1,2.06-2.06h0a2.06,2.06,0,0,1,2.06,2.06Z"/><path class="cls-15" d="M859.75,342h-4.12V329.32a2.05,2.05,0,0,1,2.06-2.05h0a2.05,2.05,0,0,1,2.06,2.05Z"/><rect class="cls-15" x="846.33" y="298.28" width="2.96" height="2.96"/><rect class="cls-15" x="857.03" y="298.28" width="2.96" height="2.96"/><rect class="cls-1" x="783.38" y="292.56" width="96.8" height="52.67"/><rect class="cls-1" x="783.38" y="281.17" width="96.8" height="11.39"/><rect class="cls-17" x="781.12" y="291.69" width="100.62" height="2.8"/><path class="cls-15" d="M795.77,342h-4.12V329.32a2.06,2.06,0,0,1,2.06-2.05h0a2.05,2.05,0,0,1,2.06,2.05Z"/><path class="cls-15" d="M794.58,318.63H792v-7.88a1.28,1.28,0,0,1,1.28-1.28h0a1.28,1.28,0,0,1,1.28,1.28Z"/><path class="cls-15" d="M805.29,318.63h-2.56v-7.88a1.28,1.28,0,0,1,1.28-1.28h0a1.28,1.28,0,0,1,1.28,1.28Z"/><path class="cls-15" d="M816.15,318.63H813.6v-7.88a1.27,1.27,0,0,1,1.27-1.28h0a1.28,1.28,0,0,1,1.28,1.28Z"/><path class="cls-15" d="M827,318.63h-2.56v-7.88a1.28,1.28,0,0,1,1.28-1.28h0a1.28,1.28,0,0,1,1.28,1.28Z"/><path class="cls-15" d="M837.73,318.63h-2.56v-7.88a1.28,1.28,0,0,1,1.28-1.28h0a1.28,1.28,0,0,1,1.28,1.28Z"/><path class="cls-15" d="M806.64,342.09h-4.12V329.41a2.06,2.06,0,0,1,2.06-2.06h0a2.06,2.06,0,0,1,2.06,2.06Z"/><path class="cls-15" d="M817,342H812.9V329.32a2.05,2.05,0,0,1,2.06-2.05h0a2.06,2.06,0,0,1,2.06,2.05Z"/><path class="cls-15" d="M827.88,342.09h-4.11V329.41a2.06,2.06,0,0,1,2.06-2.06h0a2.05,2.05,0,0,1,2,2.06Z"/><path class="cls-15" d="M838.51,342h-4.12V329.32a2.05,2.05,0,0,1,2.06-2.05h0a2.06,2.06,0,0,1,2.06,2.05Z"/><rect class="cls-15" x="791.65" y="298.36" width="2.96" height="2.96"/><rect class="cls-15" x="802.69" y="298.36" width="2.96" height="2.96"/><rect class="cls-15" x="813.39" y="298.36" width="2.96" height="2.96"/><rect class="cls-15" x="824.43" y="298.36" width="2.96" height="2.96"/><rect class="cls-15" x="835.21" y="298.36" width="2.96" height="2.96"/><rect class="cls-18" x="783.08" y="294.48" width="96.8" height="0.46"/><rect class="cls-18" x="783.1" y="288.25" width="96.8" height="0.46"/><rect class="cls-14" x="780.46" y="322.94" width="100.62" height="3.2"/><rect class="cls-18" x="780.99" y="325.99" width="100.58" height="0.54"/><rect class="cls-1" x="809.43" y="268.98" width="15.84" height="8.99"/><polygon class="cls-14" points="833.61 282.07 831.47 281.17 802.24 281.17 800.29 282.11 833.61 282.07"/><rect class="cls-18" x="809.37" y="269.4" width="15.9" height="0.13"/><rect class="cls-14" x="808.01" y="266.44" width="19.61" height="2.96"/><rect class="cls-14" x="807.26" y="277.67" width="19.61" height="0.93"/><rect class="cls-14" x="811.58" y="269.25" width="1.34" height="0.76"/><rect class="cls-14" x="811.58" y="277.02" width="1.34" height="0.76"/><rect class="cls-14" x="811.75" y="269.87" width="0.98" height="7.17"/><rect class="cls-14" x="814.75" y="269.25" width="1.34" height="0.76"/><rect class="cls-14" x="814.75" y="277.02" width="1.34" height="0.76"/><rect class="cls-14" x="814.92" y="269.87" width="0.98" height="7.17"/><rect class="cls-14" x="818.02" y="269.25" width="1.34" height="0.76"/><rect class="cls-14" x="818.02" y="277.02" width="1.34" height="0.76"/><rect class="cls-14" x="818.19" y="269.87" width="0.98" height="7.17"/><rect class="cls-14" x="821.19" y="269.25" width="1.34" height="0.76"/><rect class="cls-14" x="821.19" y="277.02" width="1.34" height="0.76"/><rect class="cls-14" x="821.36" y="269.87" width="0.98" height="7.17"/><rect class="cls-18" x="807.28" y="278.6" width="19.6" height="0.16"/><polygon class="cls-1" points="826.88 278.32 807.26 278.32 802.24 281.17 831.47 281.17 826.88 278.32"/><rect class="cls-1" x="1126.46" y="292.56" width="95.38" height="52.67"/><rect class="cls-1" x="1126.46" y="285.44" width="95.38" height="7.12"/><rect class="cls-17" x="1123.92" y="291.69" width="100.62" height="2.8" transform="translate(2348.46 586.19) rotate(180)"/><path class="cls-15" d="M1209.89,342H1214V329.32a2.05,2.05,0,0,0-2.06-2.05h0a2.05,2.05,0,0,0-2,2.05Z"/><path class="cls-15" d="M1211.08,318.63h2.55v-7.88a1.27,1.27,0,0,0-1.27-1.28h0a1.28,1.28,0,0,0-1.28,1.28Z"/><path class="cls-15" d="M1200.37,318.63h2.56v-7.88a1.28,1.28,0,0,0-1.28-1.28h0a1.28,1.28,0,0,0-1.28,1.28Z"/><path class="cls-15" d="M1189.5,318.63h2.56v-7.88a1.28,1.28,0,0,0-1.28-1.28h0a1.28,1.28,0,0,0-1.28,1.28Z"/><path class="cls-15" d="M1178.63,318.63h2.56v-7.88a1.28,1.28,0,0,0-1.28-1.28h0a1.28,1.28,0,0,0-1.28,1.28Z"/><path class="cls-15" d="M1167.93,318.63h2.56v-7.88a1.28,1.28,0,0,0-1.28-1.28h0a1.28,1.28,0,0,0-1.28,1.28Z"/><path class="cls-15" d="M1157.06,318.63h2.56v-7.88a1.28,1.28,0,0,0-1.28-1.28h0a1.28,1.28,0,0,0-1.28,1.28Z"/><path class="cls-15" d="M1146.19,318.63h2.56v-7.88a1.28,1.28,0,0,0-1.28-1.28h0a1.28,1.28,0,0,0-1.28,1.28Z"/><path class="cls-15" d="M1135.16,318.63h2.56v-7.88a1.28,1.28,0,0,0-1.28-1.28h0a1.28,1.28,0,0,0-1.28,1.28Z"/><path class="cls-15" d="M1199,342.09h4.11V329.41a2.06,2.06,0,0,0-2.06-2.06h0a2.05,2.05,0,0,0-2,2.06Z"/><path class="cls-15" d="M1188.64,342h4.12V329.32a2.05,2.05,0,0,0-2.06-2.05h0a2.05,2.05,0,0,0-2.06,2.05Z"/><path class="cls-15" d="M1177.77,342.09h4.12V329.41a2.06,2.06,0,0,0-2.06-2.06h0a2.06,2.06,0,0,0-2.06,2.06Z"/><path class="cls-15" d="M1167.15,342h4.12V329.32a2.05,2.05,0,0,0-2.06-2.05h0a2.05,2.05,0,0,0-2.06,2.05Z"/><path class="cls-15" d="M1156.28,342.09h4.12V329.41a2.06,2.06,0,0,0-2.06-2.06h0a2.06,2.06,0,0,0-2.06,2.06Z"/><path class="cls-15" d="M1145.91,342H1150V329.32a2.05,2.05,0,0,0-2-2.05h0a2.05,2.05,0,0,0-2.06,2.05Z"/><path class="cls-15" d="M1135,342.09h4.12V329.41a2.06,2.06,0,0,0-2.06-2.06h0a2.06,2.06,0,0,0-2.06,2.06Z"/><rect class="cls-15" x="1211.04" y="298.36" width="2.96" height="2.96" transform="translate(2425.04 599.69) rotate(180)"/><rect class="cls-15" x="1200" y="298.36" width="2.96" height="2.96" transform="translate(2402.97 599.69) rotate(180)"/><rect class="cls-15" x="1189.3" y="298.36" width="2.96" height="2.96" transform="translate(2381.56 599.69) rotate(180)"/><rect class="cls-15" x="1178.27" y="298.36" width="2.96" height="2.96" transform="translate(2359.5 599.69) rotate(180)"/><rect class="cls-15" x="1167.48" y="298.36" width="2.96" height="2.96" transform="translate(2337.92 599.69) rotate(180)"/><rect class="cls-15" x="1156.36" y="298.28" width="2.96" height="2.96" transform="translate(2315.69 599.53) rotate(180)"/><rect class="cls-15" x="1145.66" y="298.28" width="2.96" height="2.96" transform="translate(2294.28 599.53) rotate(180)"/><rect class="cls-15" x="1135.12" y="298.28" width="2.96" height="2.96" transform="translate(2273.21 599.53) rotate(180)"/><rect class="cls-18" x="1125.77" y="294.48" width="96.8" height="0.46" transform="translate(2348.35 589.43) rotate(180)"/><rect class="cls-18" x="1125.76" y="288.25" width="96.8" height="0.46" transform="translate(2348.32 576.96) rotate(180)"/><rect class="cls-14" x="1124.09" y="282.47" width="100.62" height="5.76" transform="translate(2348.79 570.71) rotate(180)"/><rect class="cls-14" x="1124.09" y="322.78" width="100.62" height="3.2" transform="translate(2348.79 648.76) rotate(180)"/><rect class="cls-14" x="1205.19" y="287.74" width="4.61" height="2.63" transform="translate(2414.99 578.12) rotate(180)"/><rect class="cls-14" x="1205.19" y="320.51" width="4.61" height="2.63" transform="translate(2414.99 643.66) rotate(180)"/><rect class="cls-14" x="1205.85" y="289.88" width="3.38" height="30.71" transform="translate(2415.08 610.48) rotate(180)"/><rect class="cls-14" x="1194.24" y="287.74" width="4.61" height="2.63" transform="translate(2393.09 578.12) rotate(180)"/><rect class="cls-14" x="1194.24" y="320.51" width="4.61" height="2.63" transform="translate(2393.09 643.66) rotate(180)"/><rect class="cls-14" x="1194.9" y="289.88" width="3.38" height="30.71" transform="translate(2393.17 610.48) rotate(180)"/><rect class="cls-14" x="1182.96" y="287.74" width="4.61" height="2.63" transform="translate(2370.53 578.12) rotate(180)"/><rect class="cls-14" x="1182.96" y="320.51" width="4.61" height="2.63" transform="translate(2370.53 643.66) rotate(180)"/><rect class="cls-14" x="1183.62" y="289.88" width="3.38" height="30.71" transform="translate(2370.61 610.48) rotate(180)"/><rect class="cls-14" x="1172.01" y="287.74" width="4.61" height="2.63" transform="translate(2348.63 578.12) rotate(180)"/><rect class="cls-14" x="1172.01" y="320.51" width="4.61" height="2.63" transform="translate(2348.63 643.66) rotate(180)"/><rect class="cls-14" x="1172.67" y="289.88" width="3.38" height="30.71" transform="translate(2348.71 610.48) rotate(180)"/><rect class="cls-14" x="1161.06" y="287.74" width="4.61" height="2.63" transform="translate(2326.73 578.12) rotate(180)"/><rect class="cls-14" x="1161.06" y="320.51" width="4.61" height="2.63" transform="translate(2326.73 643.66) rotate(180)"/><rect class="cls-14" x="1161.72" y="289.88" width="3.38" height="30.71" transform="translate(2326.81 610.48) rotate(180)"/><rect class="cls-14" x="1149.94" y="287.74" width="4.61" height="2.63" transform="translate(2304.49 578.12) rotate(180)"/><rect class="cls-14" x="1149.94" y="320.51" width="4.61" height="2.63" transform="translate(2304.49 643.66) rotate(180)"/><rect class="cls-14" x="1150.6" y="289.88" width="3.38" height="30.71" transform="translate(2304.58 610.48) rotate(180)"/><rect class="cls-14" x="1139.24" y="287.74" width="4.61" height="2.63" transform="translate(2283.09 578.12) rotate(180)"/><rect class="cls-14" x="1139.24" y="320.51" width="4.61" height="2.63" transform="translate(2283.09 643.66) rotate(180)"/><rect class="cls-14" x="1139.9" y="289.88" width="3.38" height="30.71" transform="translate(2283.17 610.48) rotate(180)"/><rect class="cls-18" x="1124.09" y="325.99" width="100.58" height="0.54" transform="translate(2348.75 652.51) rotate(180)"/><rect class="cls-1" x="994.06" y="292.56" width="96.8" height="52.67"/><rect class="cls-1" x="994.06" y="281.17" width="96.8" height="11.39"/><rect class="cls-17" x="992.51" y="291.69" width="100.62" height="2.8" transform="translate(2085.63 586.19) rotate(180)"/><path class="cls-15" d="M1078.47,342h4.12V329.32a2.05,2.05,0,0,0-2.06-2.05h0a2.05,2.05,0,0,0-2.06,2.05Z"/><path class="cls-15" d="M1079.66,318.63h2.56v-7.88a1.28,1.28,0,0,0-1.28-1.28h0a1.28,1.28,0,0,0-1.28,1.28Z"/><path class="cls-15" d="M1069,318.63h2.56v-7.88a1.28,1.28,0,0,0-1.28-1.28h0a1.28,1.28,0,0,0-1.28,1.28Z"/><path class="cls-15" d="M1058.09,318.63h2.56v-7.88a1.28,1.28,0,0,0-1.28-1.28h0a1.28,1.28,0,0,0-1.28,1.28Z"/><path class="cls-15" d="M1047.22,318.63h2.56v-7.88a1.28,1.28,0,0,0-1.28-1.28h0a1.28,1.28,0,0,0-1.28,1.28Z"/><path class="cls-15" d="M1036.51,318.63h2.56v-7.88a1.28,1.28,0,0,0-1.28-1.28h0a1.28,1.28,0,0,0-1.28,1.28Z"/><path class="cls-15" d="M1067.6,342.09h4.12V329.41a2.06,2.06,0,0,0-2.06-2.06h0a2.06,2.06,0,0,0-2.06,2.06Z"/><path class="cls-15" d="M1057.23,342h4.11V329.32a2.05,2.05,0,0,0-2-2.05h0a2.05,2.05,0,0,0-2.06,2.05Z"/><path class="cls-15" d="M1046.36,342.09h4.11V329.41a2.05,2.05,0,0,0-2-2.06h0a2.06,2.06,0,0,0-2.06,2.06Z"/><path class="cls-15" d="M1035.74,342h4.11V329.32a2.05,2.05,0,0,0-2.06-2.05h0a2.05,2.05,0,0,0-2,2.05Z"/><rect class="cls-15" x="1079.62" y="298.36" width="2.96" height="2.96" transform="translate(2162.21 599.69) rotate(180)"/><rect class="cls-15" x="1068.59" y="298.36" width="2.96" height="2.96" transform="translate(2140.14 599.69) rotate(180)"/><rect class="cls-15" x="1057.89" y="298.36" width="2.96" height="2.96" transform="translate(2118.74 599.69) rotate(180)"/><rect class="cls-15" x="1046.85" y="298.36" width="2.96" height="2.96" transform="translate(2096.67 599.69) rotate(180)"/><rect class="cls-15" x="1036.07" y="298.36" width="2.96" height="2.96" transform="translate(2075.09 599.69) rotate(180)"/><rect class="cls-18" x="994.36" y="294.48" width="96.8" height="0.46" transform="translate(2085.52 589.43) rotate(180)"/><rect class="cls-18" x="994.34" y="288.25" width="96.8" height="0.46" transform="translate(2085.49 576.96) rotate(180)"/><rect class="cls-14" x="993.17" y="322.94" width="100.62" height="3.2" transform="translate(2086.95 649.09) rotate(180)"/><rect class="cls-18" x="992.67" y="325.99" width="100.58" height="0.54" transform="translate(2085.92 652.51) rotate(180)"/><rect class="cls-1" x="1048.97" y="268.98" width="15.84" height="8.99" transform="translate(2113.78 546.94) rotate(180)"/><polygon class="cls-14" points="1040.63 282.07 1042.77 281.17 1072 281.17 1073.95 282.11 1040.63 282.07"/><rect class="cls-18" x="1048.97" y="269.4" width="15.9" height="0.13" transform="translate(2113.85 538.93) rotate(180)"/><rect class="cls-14" x="1046.62" y="266.44" width="19.61" height="2.96" transform="translate(2112.85 535.85) rotate(180)"/><rect class="cls-14" x="1047.37" y="277.67" width="19.61" height="0.93" transform="translate(2114.34 556.27) rotate(180)"/><rect class="cls-14" x="1061.32" y="269.25" width="1.34" height="0.76" transform="translate(2123.98 539.27) rotate(180)"/><rect class="cls-14" x="1061.32" y="277.02" width="1.34" height="0.76" transform="translate(2123.98 554.8) rotate(180)"/><rect class="cls-14" x="1061.52" y="269.87" width="0.98" height="7.17" transform="translate(2124.01 546.91) rotate(180)"/><rect class="cls-14" x="1058.15" y="269.25" width="1.34" height="0.76" transform="translate(2117.64 539.27) rotate(180)"/><rect class="cls-14" x="1058.15" y="277.02" width="1.34" height="0.76" transform="translate(2117.64 554.8) rotate(180)"/><rect class="cls-14" x="1058.34" y="269.87" width="0.98" height="7.17" transform="translate(2117.66 546.91) rotate(180)"/><rect class="cls-14" x="1054.88" y="269.25" width="1.34" height="0.76" transform="translate(2111.1 539.27) rotate(180)"/><rect class="cls-14" x="1054.88" y="277.02" width="1.34" height="0.76" transform="translate(2111.1 554.8) rotate(180)"/><rect class="cls-14" x="1055.08" y="269.87" width="0.98" height="7.17" transform="translate(2111.13 546.91) rotate(180)"/><rect class="cls-14" x="1051.71" y="269.25" width="1.34" height="0.76" transform="translate(2104.76 539.27) rotate(180)"/><rect class="cls-14" x="1051.71" y="277.02" width="1.34" height="0.76" transform="translate(2104.76 554.8) rotate(180)"/><rect class="cls-14" x="1051.9" y="269.87" width="0.98" height="7.17" transform="translate(2104.78 546.91) rotate(180)"/><rect class="cls-18" x="1047.37" y="278.6" width="19.6" height="0.16" transform="translate(2114.33 557.36) rotate(180)"/><polygon class="cls-1" points="1047.37 278.32 1066.98 278.32 1072 281.17 1042.77 281.17 1047.37 278.32"/><rect class="cls-16" x="836.02" y="281.79" width="18.96" height="63.64"/><rect class="cls-16" x="1017.58" y="281.79" width="18.96" height="63.64"/><rect class="cls-1" x="846.01" y="285.44" width="180.79" height="59.79"/><rect class="cls-1" x="846.01" y="272.63" width="180.79" height="12.81"/><rect class="cls-17" x="843.78" y="277.17" width="185.45" height="3.17"/><path class="cls-15" d="M866.72,314.8H864v-9a1.37,1.37,0,0,1,1.37-1.37h0a1.37,1.37,0,0,1,1.38,1.37Z"/><path class="cls-15" d="M902.61,314.8h-2.75v-9a1.37,1.37,0,0,1,1.37-1.37h0a1.37,1.37,0,0,1,1.38,1.37Z"/><path class="cls-15" d="M914.27,314.8h-2.74v-9a1.37,1.37,0,0,1,1.37-1.37h0a1.37,1.37,0,0,1,1.37,1.37Z"/><path class="cls-15" d="M925.94,314.8H923.2v-9a1.37,1.37,0,0,1,1.37-1.37h0a1.37,1.37,0,0,1,1.37,1.37Z"/><path class="cls-15" d="M937.43,314.8h-2.74v-9a1.37,1.37,0,0,1,1.37-1.37h0a1.37,1.37,0,0,1,1.37,1.37Z"/><path class="cls-15" d="M949.1,314.8h-2.74v-9a1.37,1.37,0,0,1,1.37-1.37h0a1.37,1.37,0,0,1,1.37,1.37Z"/><path class="cls-15" d="M960.77,314.8H958v-9a1.37,1.37,0,0,1,1.38-1.37h0a1.37,1.37,0,0,1,1.37,1.37Z"/><path class="cls-15" d="M972.62,314.8h-2.75v-9a1.37,1.37,0,0,1,1.37-1.37h0a1.37,1.37,0,0,1,1.38,1.37Z"/><path class="cls-15" d="M904.06,341.34h-4.42V326.88a2.2,2.2,0,0,1,2.21-2.21h0a2.2,2.2,0,0,1,2.21,2.21Z"/><path class="cls-15" d="M915.2,341.25h-4.42V326.78a2.21,2.21,0,0,1,2.21-2.21h0a2.21,2.21,0,0,1,2.21,2.21Z"/><path class="cls-15" d="M926.87,341.34h-4.42V326.88a2.2,2.2,0,0,1,2.21-2.21h0a2.2,2.2,0,0,1,2.21,2.21Z"/><path class="cls-15" d="M938.27,341.25h-4.42V326.78a2.21,2.21,0,0,1,2.21-2.21h0a2.21,2.21,0,0,1,2.21,2.21Z"/><path class="cls-15" d="M949.94,341.34h-4.42V326.88a2.2,2.2,0,0,1,2.21-2.21h0a2.2,2.2,0,0,1,2.21,2.21Z"/><path class="cls-15" d="M961.08,341.25h-4.42V326.78a2.21,2.21,0,0,1,2.21-2.21h0a2.21,2.21,0,0,1,2.21,2.21Z"/><path class="cls-15" d="M972.74,341.34h-4.42V326.88a2.2,2.2,0,0,1,2.21-2.21h0a2.2,2.2,0,0,1,2.21,2.21Z"/><rect class="cls-15" x="863.58" y="291.88" width="3.18" height="3.35"/><path class="cls-15" d="M1009.56,314.8h-2.74v-9a1.37,1.37,0,0,1,1.37-1.37h0a1.37,1.37,0,0,1,1.37,1.37Z"/><rect class="cls-15" x="1006.42" y="291.88" width="3.18" height="3.35"/><rect class="cls-15" x="899.82" y="291.88" width="3.18" height="3.35"/><rect class="cls-15" x="911.31" y="291.88" width="3.18" height="3.35"/><rect class="cls-15" x="923.15" y="291.88" width="3.18" height="3.35"/><rect class="cls-15" x="934.73" y="291.88" width="3.18" height="3.35"/><rect class="cls-15" x="946.67" y="291.78" width="3.18" height="3.35"/><rect class="cls-15" x="958.16" y="291.78" width="3.18" height="3.35"/><rect class="cls-15" x="969.47" y="291.78" width="3.18" height="3.35"/><rect class="cls-18" x="845.9" y="280.43" width="181.36" height="0.53"/><rect class="cls-18" x="824.31" y="307.85" width="54.49" height="0.53" transform="translate(543.44 1159.67) rotate(-90)"/><rect class="cls-18" x="832.62" y="307.85" width="54.49" height="0.53" transform="translate(551.75 1167.98) rotate(-90)"/><rect class="cls-18" x="844.29" y="307.85" width="54.49" height="0.53" transform="translate(563.42 1179.65) rotate(-90)"/><rect class="cls-18" x="853.66" y="307.85" width="54.49" height="0.53" transform="translate(572.79 1189.02) rotate(-90)"/><rect class="cls-18" x="966.8" y="307.85" width="54.49" height="0.53" transform="translate(685.93 1302.17) rotate(-90)"/><rect class="cls-18" x="975.11" y="307.85" width="54.49" height="0.53" transform="translate(694.24 1310.48) rotate(-90)"/><rect class="cls-18" x="986.78" y="307.85" width="54.49" height="0.53" transform="translate(705.91 1322.14) rotate(-90)"/><rect class="cls-18" x="996.15" y="307.85" width="54.49" height="0.53" transform="translate(715.28 1331.51) rotate(-90)"/><rect class="cls-14" x="844.04" y="318.27" width="185.45" height="26.91"/><path class="cls-15" d="M868,340.78h-4.42V326.32a2.21,2.21,0,0,1,2.21-2.21h0a2.21,2.21,0,0,1,2.21,2.21Z"/><path class="cls-15" d="M1010.84,340.78h-4.42V326.32a2.21,2.21,0,0,1,2.21-2.21h0a2.21,2.21,0,0,1,2.21,2.21Z"/><path class="cls-1" d="M952.5,171.41a181.92,181.92,0,0,0-35.8.2C895,183,895.35,205.72,895.35,207.14h78.5C973.85,205.72,974.25,182.81,952.5,171.41Z"/><g class="cls-19"><path class="cls-14" d="M894.69,205.62l.27-1.86s79.25-.1,79.15,0a12,12,0,0,0,.27,2Z"/></g><rect class="cls-17" x="926.78" y="143.28" width="15.29" height="18.92"/><rect class="cls-16" x="875.78" y="273.22" width="9.9" height="72.31"/><rect class="cls-16" x="986.09" y="273.22" width="9.9" height="72.31"/><rect class="cls-14" x="883.02" y="280.03" width="103.95" height="53.04"/><rect class="cls-14" x="891.18" y="229.55" width="85.37" height="48.62"/><rect class="cls-14" x="895.68" y="206.18" width="74.52" height="21.37"/><rect class="cls-1" x="882.49" y="282.72" width="5.7" height="2.78"/><rect class="cls-1" x="882.49" y="322.1" width="5.7" height="2.78"/><rect class="cls-1" x="883.69" y="284.84" width="3.45" height="37.92"/><rect class="cls-1" x="889.26" y="282.72" width="5.7" height="2.78"/><rect class="cls-1" x="889.26" y="322.1" width="5.7" height="2.78"/><rect class="cls-1" x="890.45" y="284.84" width="3.45" height="37.92"/><rect class="cls-1" x="901.59" y="282.72" width="5.7" height="2.78"/><rect class="cls-1" x="901.59" y="322.1" width="5.7" height="2.78"/><rect class="cls-1" x="902.78" y="284.84" width="3.45" height="37.92"/><rect class="cls-1" x="908.35" y="282.72" width="5.7" height="2.78"/><rect class="cls-1" x="908.35" y="322.1" width="5.7" height="2.78"/><rect class="cls-1" x="909.54" y="284.84" width="3.45" height="37.92"/><rect class="cls-1" x="922.8" y="282.72" width="5.7" height="2.78"/><rect class="cls-1" x="922.8" y="322.1" width="5.7" height="2.78"/><rect class="cls-1" x="923.99" y="284.84" width="3.45" height="37.92"/><rect class="cls-1" x="942.29" y="282.72" width="5.7" height="2.78"/><rect class="cls-1" x="942.29" y="322.1" width="5.7" height="2.78"/><rect class="cls-1" x="943.49" y="284.84" width="3.45" height="37.92"/><rect class="cls-1" x="956.61" y="282.72" width="5.7" height="2.78"/><rect class="cls-1" x="956.61" y="322.1" width="5.7" height="2.78"/><rect class="cls-1" x="957.81" y="284.84" width="3.45" height="37.92"/><rect class="cls-1" x="963.37" y="282.72" width="5.7" height="2.78"/><rect class="cls-1" x="963.37" y="322.1" width="5.7" height="2.78"/><rect class="cls-1" x="964.57" y="284.84" width="3.45" height="37.92"/><rect class="cls-1" x="975.71" y="282.72" width="5.7" height="2.78"/><rect class="cls-1" x="975.71" y="322.1" width="5.7" height="2.78"/><rect class="cls-1" x="976.9" y="284.84" width="3.45" height="37.92"/><rect class="cls-1" x="982.47" y="282.72" width="5.7" height="2.78"/><rect class="cls-1" x="982.47" y="322.1" width="5.7" height="2.78"/><rect class="cls-1" x="983.66" y="284.84" width="3.45" height="37.92"/><rect class="cls-1" x="882.49" y="324.89" width="106.07" height="22.94"/><rect class="cls-1" x="882.49" y="278.61" width="105.68" height="5.41"/><rect class="cls-1" x="880.64" y="271.19" width="109.12" height="7.43"/><rect class="cls-1" x="885.18" y="225.27" width="100.11" height="7.63"/><rect class="cls-1" x="884.88" y="266.94" width="100.24" height="4.38"/><rect class="cls-13" x="882.49" y="278.61" width="105.69" height="1.24"/><rect class="cls-13" x="884.88" y="270.72" width="100.24" height="0.46"/><rect class="cls-1" x="890.18" y="232.91" width="6.36" height="33.94"/><rect class="cls-1" x="887.8" y="265.64" width="10.96" height="1.33"/><rect class="cls-1" x="887.8" y="232.89" width="10.96" height="1.33"/><rect class="cls-1" x="901.85" y="232.91" width="6.36" height="33.94"/><rect class="cls-1" x="899.47" y="265.64" width="10.96" height="1.33"/><rect class="cls-1" x="899.47" y="232.89" width="10.96" height="1.33"/><rect class="cls-1" x="914.18" y="232.91" width="6.36" height="33.94"/><rect class="cls-1" x="911.8" y="265.64" width="10.96" height="1.33"/><rect class="cls-1" x="911.8" y="232.89" width="10.96" height="1.33"/><rect class="cls-1" x="925.85" y="232.91" width="6.36" height="33.94"/><rect class="cls-1" x="923.46" y="265.64" width="10.96" height="1.33"/><rect class="cls-1" x="923.46" y="232.89" width="10.96" height="1.33"/><rect class="cls-1" x="937.52" y="232.91" width="6.36" height="33.94"/><rect class="cls-1" x="935.13" y="265.64" width="10.96" height="1.33"/><rect class="cls-1" x="935.13" y="232.89" width="10.96" height="1.33"/><rect class="cls-1" x="949.19" y="232.91" width="6.36" height="33.94"/><rect class="cls-1" x="946.8" y="265.64" width="10.96" height="1.33"/><rect class="cls-1" x="946.8" y="232.89" width="10.96" height="1.33"/><rect class="cls-1" x="961.52" y="232.91" width="6.36" height="33.94"/><rect class="cls-1" x="959.13" y="265.64" width="10.96" height="1.33"/><rect class="cls-1" x="959.13" y="232.89" width="10.96" height="1.33"/><rect class="cls-1" x="973.19" y="232.91" width="6.36" height="33.94"/><rect class="cls-1" x="970.8" y="265.64" width="10.96" height="1.33"/><rect class="cls-1" x="970.8" y="232.89" width="10.96" height="1.33"/><rect class="cls-1" x="892.01" y="204.58" width="83.87" height="3.72"/><rect class="cls-1" x="903.64" y="208.26" width="4.3" height="17.02"/><rect class="cls-1" x="902.03" y="224.67" width="7.4" height="0.66"/><rect class="cls-1" x="902.03" y="208.24" width="7.4" height="0.66"/><rect class="cls-1" x="895.42" y="208.26" width="4.3" height="17.02"/><rect class="cls-1" x="893.8" y="224.67" width="7.4" height="0.66"/><rect class="cls-1" x="893.8" y="208.24" width="7.4" height="0.66"/><rect class="cls-1" x="911.52" y="208.26" width="4.3" height="17.02"/><rect class="cls-1" x="909.91" y="224.67" width="7.4" height="0.66"/><rect class="cls-1" x="909.91" y="208.24" width="7.4" height="0.66"/><rect class="cls-1" x="919.85" y="208.26" width="4.3" height="17.02"/><rect class="cls-1" x="918.23" y="224.67" width="7.4" height="0.66"/><rect class="cls-1" x="918.23" y="208.24" width="7.4" height="0.66"/><rect class="cls-1" x="927.73" y="208.26" width="4.3" height="17.02"/><rect class="cls-1" x="926.11" y="224.67" width="7.4" height="0.66"/><rect class="cls-1" x="926.11" y="208.24" width="7.4" height="0.66"/><rect class="cls-1" x="935.61" y="208.26" width="4.3" height="17.02"/><rect class="cls-1" x="933.99" y="224.67" width="7.4" height="0.66"/><rect class="cls-1" x="933.99" y="208.24" width="7.4" height="0.66"/><rect class="cls-1" x="943.49" y="208.26" width="4.3" height="17.02"/><rect class="cls-1" x="941.87" y="224.67" width="7.4" height="0.66"/><rect class="cls-1" x="941.87" y="208.24" width="7.4" height="0.66"/><rect class="cls-1" x="951.81" y="208.26" width="4.3" height="17.02"/><rect class="cls-1" x="950.2" y="224.67" width="7.4" height="0.66"/><rect class="cls-1" x="950.2" y="208.24" width="7.4" height="0.66"/><rect class="cls-1" x="959.69" y="208.26" width="4.3" height="17.02"/><rect class="cls-1" x="958.08" y="224.67" width="7.4" height="0.66"/><rect class="cls-1" x="958.08" y="208.24" width="7.4" height="0.66"/><rect class="cls-1" x="968.18" y="208.26" width="4.3" height="17.02"/><rect class="cls-1" x="966.57" y="224.67" width="7.4" height="0.66"/><rect class="cls-1" x="966.57" y="208.24" width="7.4" height="0.66"/><path class="cls-1" d="M949.45,166.7a16.94,16.94,0,0,0-29.7-.19S934.8,164.38,949.45,166.7Z"/><path class="cls-17" d="M952.5,171.08s.53-4.11-3-4.38c-14.65-2.32-29.7-.19-29.7-.19-3.58.26-3,4.6-3,4.6A190.74,190.74,0,0,1,952.5,171.08Z"/><rect class="cls-1" x="925.92" y="144.5" width="1.66" height="15.98"/><rect class="cls-1" x="929.1" y="144.5" width="1.66" height="15.98"/><rect class="cls-1" x="932.15" y="144.5" width="1.66" height="15.98"/><rect class="cls-1" x="935.33" y="144.5" width="1.66" height="15.98"/><rect class="cls-1" x="938.31" y="144.5" width="1.66" height="15.98"/><rect class="cls-1" x="941.5" y="144.5" width="1.66" height="15.98"/><rect class="cls-1" x="929.36" y="127.72" width="10.34" height="9.68"/><rect class="cls-17" x="927.97" y="137.2" width="13.06" height="2.25"/><path class="cls-1" d="M930.43,129l-1.07-1.26s.53-2.45,3.85-3.58c0,0,.66-2.19-.27-3s-3-5.43-1.39-6.49.86-5.71,2.32-5.77.33,3.45,1.46,3.51,2.39,4.78,1.33,6.7-.53,5.3-.53,5.3,3.11.53,3.58,3.38l-1.59,2"/><rect class="cls-1" x="923.33" y="138.6" width="22.54" height="6.17"/><path class="cls-15" d="M900.19,318.79h-3.71V310a1.86,1.86,0,0,1,1.86-1.86h0a1.85,1.85,0,0,1,1.85,1.86Z"/><path class="cls-15" d="M897.33,293h1.73a.84.84,0,0,1,.84.84v4a0,0,0,0,1,0,0h-3.42a0,0,0,0,1,0,0v-4A.84.84,0,0,1,897.33,293Z"/><path class="cls-15" d="M920.48,318.79h-3.71V310a1.85,1.85,0,0,1,1.85-1.86h0a1.86,1.86,0,0,1,1.86,1.86Z"/><path class="cls-15" d="M917.61,293h1.73a.84.84,0,0,1,.84.84v4a0,0,0,0,1,0,0h-3.42a0,0,0,0,1,0,0v-4A.84.84,0,0,1,917.61,293Z"/><path class="cls-15" d="M937.59,318.79h-3.72V310a1.86,1.86,0,0,1,1.86-1.86h0a1.86,1.86,0,0,1,1.86,1.86Z"/><path class="cls-15" d="M934.72,293h1.73a.85.85,0,0,1,.85.85v4a0,0,0,0,1,0,0h-3.42a0,0,0,0,1,0,0v-4A.84.84,0,0,1,934.72,293Z"/><path class="cls-15" d="M954.36,318.79h-3.71V310a1.85,1.85,0,0,1,1.85-1.86h0a1.86,1.86,0,0,1,1.86,1.86Z"/><path class="cls-15" d="M951.49,293h1.73a.84.84,0,0,1,.84.84v4a0,0,0,0,1,0,0h-3.42a0,0,0,0,1,0,0v-4A.84.84,0,0,1,951.49,293Z"/><path class="cls-15" d="M974.38,318.79h-3.71V310a1.85,1.85,0,0,1,1.85-1.86h0a1.86,1.86,0,0,1,1.86,1.86Z"/><path class="cls-15" d="M971.51,293h1.73a.84.84,0,0,1,.84.84v4a0,0,0,0,1,0,0h-3.42a0,0,0,0,1,0,0v-4A.84.84,0,0,1,971.51,293Z"/><rect class="cls-1" x="650.19" y="343.85" width="574.39" height="6.36"/></g></g></svg>